<?xml version="1.0" encoding="UTF-8"?>
<svg version="1.1" xmlns="http://www.w3.org/2000/svg" width="500" height="500">
<path d="M0 0 C1.52167786 -0.00472824 1.52167786 -0.00472824 3.07409668 -0.009552 C4.17306274 -0.00752777 5.27202881 -0.00550354 6.40429688 -0.00341797 C7.52872192 -0.00437469 8.65314697 -0.00533142 9.81164551 -0.00631714 C12.192302 -0.00699855 14.57296034 -0.00514696 16.95361328 -0.00097656 C20.60778965 0.0043722 24.2618431 -0.00092289 27.91601562 -0.00732422 C30.22460965 -0.00666343 32.53320359 -0.00538225 34.84179688 -0.00341797 C36.49024597 -0.00645432 36.49024597 -0.00645432 38.17199707 -0.009552 C39.18644897 -0.00639984 40.20090088 -0.00324768 41.24609375 0 C42.58939758 0.00119339 42.58939758 0.00119339 43.95983887 0.00241089 C46.12304688 0.12939453 46.12304688 0.12939453 48.12304688 1.12939453 C49.74526893 1.28638376 51.3712572 1.40537255 52.99804688 1.50439453 C58.15189216 1.9271709 62.88079888 2.9910883 67.86083984 4.34545898 C71.00137316 5.10015532 74.05298497 5.5522994 77.25585938 5.94970703 C83.97775028 6.95813371 89.86819524 8.95911184 96.12304688 11.56689453 C97.18958496 12.00283936 98.25612305 12.43878418 99.35498047 12.88793945 C111.1991185 17.83309989 123.52075056 23.23046828 133.93554688 30.83251953 C136.52295662 32.69697655 138.58937833 33.89369551 141.49804688 35.06689453 C152.72541155 40.48285146 162.67897598 50.27363565 171.22460938 59.19580078 C173.08713698 61.09281964 175.02575069 62.79532659 177.06054688 64.50439453 C184.08357942 70.54223213 190.02517867 77.42214319 195.12304688 85.12939453 C196.56071081 86.8964142 198.01940003 88.64652419 199.49804688 90.37939453 C203.62864979 95.37532834 206.92937396 100.50673095 210.12304688 106.12939453 C211.08014632 107.67182752 212.03851027 109.2134765 212.99804688 110.75439453 C219.1588441 121.04941094 224.30517247 131.75631719 228.12304688 143.12939453 C228.52136719 144.20447266 228.9196875 145.27955078 229.33007812 146.38720703 C232.47131925 154.87140512 234.94983789 163.35606939 237.12304688 172.12939453 C237.44789063 173.41330078 237.44789063 173.41330078 237.77929688 174.72314453 C240.16665156 184.69386114 240.27262448 194.70605927 240.25585938 204.91455078 C240.25729446 206.85895302 240.25729446 206.85895302 240.25875854 208.84263611 C240.26022245 211.56982635 240.25812307 214.29698356 240.25341797 217.02416992 C240.24771578 220.49588933 240.25101115 223.96753148 240.25699043 227.43924809 C240.26149958 230.78518829 240.25833071 234.13110839 240.25585938 237.47705078 C240.25788361 238.71165543 240.25990784 239.94626007 240.26199341 241.21827698 C240.23925415 249.64615128 239.9273643 257.75187906 237.74804688 265.94189453 C237.47992188 266.96283203 237.21179688 267.98376953 236.93554688 269.03564453 C236.66742188 270.05658203 236.39929688 271.07751953 236.12304688 272.12939453 C235.78273438 273.56798828 235.78273438 273.56798828 235.43554688 275.03564453 C228.76717637 303.2246653 216.45705831 330.58197675 198.12304688 353.12939453 C197.17908077 354.37451872 196.24116706 355.62426413 195.31054688 356.87939453 C194.79621094 357.56388672 194.281875 358.24837891 193.75195312 358.95361328 C192.64726426 360.4291809 191.55115546 361.91120373 190.46289062 363.39892578 C189.89699219 364.15560547 189.33109375 364.91228516 188.74804688 365.69189453 C188.2453125 366.37380859 187.74257813 367.05572266 187.22460938 367.75830078 C184.77445111 370.52269868 182.07210589 372.81963069 179.27246094 375.22241211 C175.02168803 378.99374186 171.13686601 383.15179134 167.2109375 387.25634766 C163.29334391 391.25852129 159.36046843 394.52614379 154.63452148 397.52758789 C151.72918984 399.38059469 148.90701756 401.33641237 146.07617188 403.30126953 C126.1129075 417.00128653 106.40422787 427.10523504 83.12304688 434.12939453 C82.42501953 434.34321777 81.72699219 434.55704102 81.0078125 434.77734375 C65.82329986 439.40446514 51.62760033 441.28919866 35.77539062 441.26220703 C34.52351456 441.26316376 33.27163849 441.26412048 31.98182678 441.2651062 C28.67933366 441.26595563 25.37688862 441.26196806 22.07440186 441.25634766 C20.06057226 441.25439456 18.04678619 441.25634418 16.03295898 441.25976562 C12.13458261 441.26596753 8.23626974 441.26518858 4.33789062 441.26220703 C2.551605 441.26524338 2.551605 441.26524338 0.72923279 441.26834106 C-7.59247356 441.24509141 -15.60307363 440.906135 -23.68945312 438.75439453 C-28.18948328 437.56856793 -28.18948328 437.56856793 -32.71289062 436.47705078 C-40.35068421 434.70884925 -47.62210655 432.20191237 -54.97851562 429.52783203 C-57.77752532 428.51109209 -60.5826415 427.59720869 -63.43945312 426.75439453 C-79.52964265 421.43249432 -94.11946336 411.31110425 -107.68554688 401.42626953 C-109.76307266 399.93106125 -111.87062478 398.4764457 -114.00976562 397.07080078 C-122.37844094 391.40427267 -129.38482594 383.72291074 -136.43530273 376.53442383 C-139.40355813 373.52415547 -142.39066715 370.6498192 -145.64257812 367.94580078 C-148.23710856 365.76240755 -150.16388975 363.67565782 -151.93945312 360.75439453 C-153.7377164 357.90360446 -155.56042135 355.16715256 -157.62695312 352.50439453 C-166.26980129 341.04811923 -173.32294977 329.04612739 -179.79003906 316.25488281 C-180.73058116 314.41562866 -181.71043399 312.59657672 -182.69726562 310.78173828 C-186.19889403 304.24477872 -188.25448169 297.74872007 -190.00976562 290.58251953 C-190.69349621 287.85991668 -191.46756092 285.31700543 -192.43945312 282.69189453 C-194.17185477 277.76922318 -194.98729172 272.66440913 -195.87524414 267.53588867 C-196.50417711 263.71937653 -196.50417711 263.71937653 -197.87695312 260.12939453 C-198.19022336 257.30996237 -198.38725276 254.48961371 -198.59570312 251.66064453 C-198.72827924 249.1386545 -198.72827924 249.1386545 -199.87695312 247.12939453 C-199.97249378 245.44470117 -200.00490578 243.75624733 -200.00634766 242.06884766 C-200.00949982 241.01435425 -200.01265198 239.95986084 -200.01589966 238.87341309 C-200.01387543 237.73069946 -200.0118512 236.58798584 -200.00976562 235.41064453 C-200.01072235 234.24182739 -200.01167908 233.07301025 -200.01266479 231.86877441 C-200.01334625 229.39396104 -200.01149435 226.91914589 -200.00732422 224.44433594 C-200.00197552 220.64530441 -200.0072704 216.84639111 -200.01367188 213.04736328 C-200.01301109 210.64762344 -200.01172991 208.24788366 -200.00976562 205.84814453 C-200.01178986 204.70543091 -200.01381409 203.56271729 -200.01589966 202.38537598 C-200.0127475 201.33088257 -200.00959534 200.27638916 -200.00634766 199.18994141 C-200.00555206 198.25887573 -200.00475647 197.32781006 -200.00393677 196.36853027 C-199.87695312 194.12939453 -199.87695312 194.12939453 -198.87695312 192.12939453 C-198.72046376 190.48625624 -198.6012337 188.83947935 -198.50195312 187.19189453 C-198.08986542 182.29756053 -197.13712708 177.8856821 -195.75195312 173.18408203 C-194.93411873 170.32896374 -194.22632375 167.46139389 -193.54321289 164.5715332 C-189.78685317 148.8430938 -184.5454855 134.37038939 -176.87695312 120.12939453 C-176.338125 119.10974609 -175.79929687 118.09009766 -175.24414062 117.03955078 C-170.36058494 107.92443244 -165.14017395 99.35370393 -158.87695312 91.12939453 C-158.34279785 90.41936279 -157.80864258 89.70933105 -157.25830078 88.9777832 C-148.41286447 77.23950806 -139.3297645 66.62435707 -128.09570312 57.07080078 C-126.30724802 55.50590256 -124.57180049 53.91377184 -122.84570312 52.28173828 C-114.34647665 44.25168621 -106.02833736 37.47533642 -95.39257812 32.41845703 C-92.83901991 31.10995671 -90.56034225 29.61812874 -88.18945312 28.00439453 C-82.48570358 24.2863343 -76.45362742 21.37320759 -70.31445312 18.44189453 C-69.34483643 17.97831543 -68.37521973 17.51473633 -67.3762207 17.03710938 C-56.55194843 11.93393648 -46.3222493 7.88746753 -34.43945312 6.19189453 C-30.54167261 5.62738839 -27.00146622 4.94784853 -23.31445312 3.56689453 C-18.73069232 1.87141423 -14.23558044 1.60073853 -9.38085938 1.34033203 C-6.01574146 1.05684316 -3.50939109 0.00311774 0 0 Z " fill="#040203" transform="translate(229.876953125,27.87060546875)"/>
<path d="M0 0 C0 0.66 0 1.32 0 2 C0.70125 2.0825 1.4025 2.165 2.125 2.25 C10.22896305 4.36407732 18.47141507 12.20712261 23 19 C23 19.99 23 20.98 23 22 C23.66 22 24.32 22 25 22 C26.25664978 24.90600261 27 26.79604584 27 30 C27.66 30 28.32 30 29 30 C29 30.66 29 31.32 29 32 C29.66 32 30.32 32 31 32 C31.18175781 32.66386719 31.36351562 33.32773438 31.55078125 34.01171875 C32.91960656 38.82015637 34.40759576 42.71689734 37 47 C38.87953193 53.17560492 39.38548293 58.87423347 39.375 65.3125 C39.37483887 66.23732178 39.37467773 67.16214355 39.37451172 68.11499023 C39.25898316 75.02785425 38.21896375 80.8087814 35 87 C34.62617188 87.75152344 34.25234375 88.50304687 33.8671875 89.27734375 C33.58101562 89.84582031 33.29484375 90.41429687 33 91 C32.34 91 31.68 91 31 91 C31 92.32 31 93.64 31 95 C26.04633459 99.68589972 22.29015555 100.15476348 15.625 100.1875 C14.31789062 100.20167969 13.01078125 100.21585937 11.6640625 100.23046875 C6.34103739 99.89565161 3.0964579 98.33785458 -1 95 C2.08890302 103.79149322 6.4915673 111.84626238 10.92333984 120.01123047 C11.86094897 121.74314972 12.78517139 123.48230296 13.70703125 125.22265625 C25.72962391 147.77691319 41.85663771 167.62427041 66 177 C66.85648553 172.54524994 67.13491809 168.32022226 67.15821838 163.78665161 C67.16315636 163.08323761 67.16809434 162.37982361 67.17318195 161.65509403 C67.18847509 159.31059228 67.19689523 156.96611774 67.20532227 154.62158203 C67.21490723 152.93598697 67.22491768 151.25039428 67.23532104 149.56480408 C67.26230912 144.99713845 67.28335163 140.42946255 67.30332303 135.86176157 C67.32522027 131.08513941 67.35259065 126.30854868 67.37937927 121.5319519 C67.42925566 112.49047248 67.47421322 103.44897557 67.51740164 94.407462 C67.57605909 82.18705356 67.64231877 69.9666865 67.70815182 57.746315 C67.81164744 38.49757123 67.90498916 19.24879186 68 0 C93.41 0 118.82 0 145 0 C147 8 149 16 151 24 C151.34289062 24.68578125 151.68578125 25.3715625 152.0390625 26.078125 C153.43442471 28.86884941 153.81621782 31.68655888 154.375 34.75 C155.46400032 40.50204515 156.71054033 46.19399456 158.125 51.875 C158.38095947 52.91865723 158.38095947 52.91865723 158.64208984 53.98339844 C159.27429991 57.26609783 159.27429991 57.26609783 161 60 C161.49623618 62.09555159 161.94601184 64.20215501 162.375 66.3125 C163.32846807 70.91240207 164.35561052 75.46038019 165.5625 80 C167.03233716 85.70235256 167.84282982 91.42271303 168.5703125 97.26171875 C168.70988047 99.90619438 168.70988047 99.90619438 170 101 C170.04080783 102.99958364 170.04254356 105.00045254 170 107 C170.66 107 171.32 107 172 107 C178.14611384 131.0474163 178.14611384 131.0474163 178 138 C178.66 138 179.32 138 180 138 C180.66 142.62 181.32 147.24 182 152 C163.52 152 145.04 152 126 152 C126.01160156 160.14558594 126.02320313 168.29117188 126.03515625 176.68359375 C126.04026279 181.82877683 126.04507655 186.97395681 126.04882812 192.11914062 C126.0548174 200.29468436 126.06177198 208.47021702 126.07543945 216.64575195 C126.08644707 223.23335305 126.09227623 229.82094531 126.09487724 236.40855598 C126.096732 238.92808279 126.10035357 241.44760891 126.10573006 243.96713066 C126.11293676 247.48257765 126.1139911 250.99797461 126.11352539 254.51342773 C126.11712067 255.56646591 126.12071594 256.61950409 126.12442017 257.70445251 C126.1230455 258.65662659 126.12167084 259.60880066 126.12025452 260.58982849 C126.12163721 261.83839709 126.12163721 261.83839709 126.12304783 263.11218929 C126 265 126 265 125 266 C123.13057447 266.13584629 121.25603718 266.20186758 119.38208008 266.24047852 C117.5793438 266.27909752 117.5793438 266.27909752 115.7401886 266.3184967 C110.22425798 266.40241602 104.70850724 266.46859984 99.19213867 266.51489258 C96.28055653 266.54160956 93.37061809 266.59028567 90.4597168 266.65844727 C86.94406883 266.74056197 83.42998221 266.78310039 79.91342735 266.79795647 C77.92671323 266.81611215 75.9404863 266.87374617 73.95454407 266.93202209 C65.13344093 266.91301589 65.13344093 266.91301589 61.8074646 264.2338562 C58 259.32675783 58 259.32675783 58 256 C57.34 256 56.68 256 56 256 C55.75507813 255.50113281 55.51015625 255.00226563 55.2578125 254.48828125 C52.30173125 248.81056658 48.68802708 243.8312827 44.73828125 238.81982422 C41.68586698 234.93690652 38.92400397 230.9524323 36.25 226.8046875 C34.73230932 224.61352158 32.91665842 222.84294079 31 221 C31 220.34 31 219.68 31 219 C30.34 219 29.68 219 29 219 C27 215 25 211 23 207 C22.34 207 21.68 207 21 207 C20.46375 206.030625 19.9275 205.06125 19.375 204.0625 C14.77709979 195.56446891 14.77709979 195.56446891 8 189 C7.67 189.66 7.34 190.32 7 191 C6.01 191 5.02 191 4 191 C3.87625 192.0725 3.7525 193.145 3.625 194.25 C3.10280215 197.3831871 2.70882871 199.38649726 1 202 C0.34 202.33 -0.32 202.66 -1 203 C-2.87228255 207.60269461 -4.46412283 212.27422409 -6 217 C-6.66 217 -7.32 217 -8 217 C-8 218.32 -8 219.64 -8 221 C-8.66 221 -9.32 221 -10 221 C-10.33 224.3 -10.66 227.6 -11 231 C-11.66 231 -12.32 231 -13 231 C-13.185625 232.08087891 -13.185625 232.08087891 -13.375 233.18359375 C-13.99739516 235.98826192 -14.88817803 238.41783525 -16 241.0625 C-17.24198764 244.02591904 -18.30391479 246.86036569 -19 250 C-19.66 250 -20.32 250 -21 250 C-21.103125 250.845625 -21.20625 251.69125 -21.3125 252.5625 C-22.63474421 259.17372105 -25.963944 265.03257959 -29 271 C-30.66289062 270.36771484 -30.66289062 270.36771484 -32.359375 269.72265625 C-33.82287248 269.169154 -35.2864166 268.61577504 -36.75 268.0625 C-37.47960937 267.78470703 -38.20921875 267.50691406 -38.9609375 267.22070312 C-39.66992188 266.95322266 -40.37890625 266.68574219 -41.109375 266.41015625 C-41.75874023 266.16402588 -42.40810547 265.91789551 -43.07714844 265.66430664 C-45.032576 264.98874565 -46.98665757 264.47199954 -49 264 C-49 263.34 -49 262.68 -49 262 C-50.32 262 -51.64 262 -53 262 C-53 261.34 -53 260.68 -53 260 C-53.59167969 259.95101563 -54.18335938 259.90203125 -54.79296875 259.8515625 C-59.19104472 259.43543133 -62.96928897 258.95034405 -67 257 C-67 256.34 -67 255.68 -67 255 C-67.7425 255.061875 -68.485 255.12375 -69.25 255.1875 C-72.55005079 254.96249654 -73.44708593 254.01138684 -76 252 C-77.99541868 251.31974363 -79.99617991 250.65509503 -82 250 C-83.27986053 249.372246 -84.55026678 248.72498423 -85.8125 248.0625 C-89.3302259 246.25357454 -92.84723822 244.98259142 -96.61328125 243.79296875 C-100.81898315 242.39565699 -104.90286257 240.68504399 -109 239 C-109 238.34 -109 237.68 -109 237 C-110.32 237 -111.64 237 -113 237 C-113 236.34 -113 235.68 -113 235 C-113.86625 234.814375 -113.86625 234.814375 -114.75 234.625 C-117.02612206 233.99274387 -118.90760206 233.08136532 -121 232 C-121.56916996 209.13833992 -121.56916996 209.13833992 -118 202 C-117.79980811 200.00010692 -117.65424042 197.99463817 -117.53515625 195.98828125 C-117.4582959 194.76133545 -117.38143555 193.53438965 -117.30224609 192.27026367 C-117.22312988 190.96420166 -117.14401367 189.65813965 -117.0625 188.3125 C-116.41003235 178.13562644 -115.63475246 168.06937948 -114 158 C-113.34 158 -112.68 158 -112 158 C-111.92483154 156.96782349 -111.92483154 156.96782349 -111.84814453 155.91479492 C-110.79630806 141.58143607 -109.65155561 127.27755556 -108 113 C-107.91218262 112.22785156 -107.82436523 111.45570313 -107.73388672 110.66015625 C-106.19022346 97.19022346 -106.19022346 97.19022346 -105 96 C-104.60430892 93.98688551 -104.25747809 91.96402792 -103.9375 89.9375 C-103.76089844 88.83277344 -103.58429688 87.72804688 -103.40234375 86.58984375 C-103.26957031 85.73519531 -103.13679688 84.88054687 -103 84 C-100.57421875 84.375 -100.57421875 84.375 -98 85 C-96.8125 87 -96.8125 87 -96 89 C-95.34 89.33 -94.68 89.66 -94 90 C-92.98308736 91.99145391 -91.98357352 93.99187074 -91 96 C-90.34 96.66 -89.68 97.32 -89 98 C-89 98.99 -89 99.98 -89 101 C-88.34 101 -87.68 101 -87 101 C-85.44140625 102.6953125 -85.44140625 102.6953125 -83.5625 105.125 C-82.86253906 106.02605469 -82.16257813 106.92710937 -81.44140625 107.85546875 C-80.63574219 108.89316406 -79.83007812 109.93085938 -79 111 C-78.01135324 112.22706747 -77.0203665 113.45225241 -76.02734375 114.67578125 C-75.01814488 115.92961966 -74.00902962 117.18352538 -73 118.4375 C-72.50701416 119.04029785 -72.01402832 119.6430957 -71.50610352 120.26416016 C-68 124.66088958 -68 124.66088958 -68 128 C-67.01 128.33 -66.02 128.66 -65 129 C-63.28125 130.92578125 -63.28125 130.92578125 -61.5 133.3125 C-60.61828125 134.48232422 -60.61828125 134.48232422 -59.71875 135.67578125 C-58.60979169 137.17539533 -57.52435909 138.69283408 -56.46875 140.23046875 C-55.02699561 142.28434474 -55.02699561 142.28434474 -52 143 C-51.72800781 142.41992188 -51.45601563 141.83984375 -51.17578125 141.2421875 C-49.22057426 137.51365324 -46.58236196 134.31202198 -44 131 C-43.29037109 130.08347656 -43.29037109 130.08347656 -42.56640625 129.1484375 C-41.42846463 127.72347797 -40.21990645 126.35545161 -39 125 C-38.34 125 -37.68 125 -37 125 C-38.28716735 120.34639495 -39.72962969 115.77627006 -41.27734375 111.203125 C-41.92303333 109.23464434 -42.49775647 107.24321245 -43.0625 105.25 C-43.9168967 102.05347398 -43.9168967 102.05347398 -45.125 99.3125 C-46 97 -46 97 -46 93 C-47.485 92.505 -47.485 92.505 -49 92 C-49.86437982 89.55589154 -50.53409459 87.26016617 -51.125 84.75 C-51.37830078 83.74646484 -51.37830078 83.74646484 -51.63671875 82.72265625 C-52.52387602 79.16704166 -53.31627206 75.60003691 -54 72 C-54.66 72 -55.32 72 -56 72 C-64.65591812 34.20764321 -64.65591812 34.20764321 -55.3125 18.8515625 C-54.879375 18.24054688 -54.44625 17.62953125 -54 17 C-53.34 17 -52.68 17 -52 17 C-51.9175 16.443125 -51.835 15.88625 -51.75 15.3125 C-49.80511848 9.31578199 -44.65879007 5.68084876 -39.41967773 2.6171875 C-27.94747368 -2.92176317 -12.41040995 -0.58364956 0 0 Z " fill="#FDFCFC" transform="translate(226,110)"/>
<path d="M0 0 C1.52167786 -0.00472824 1.52167786 -0.00472824 3.07409668 -0.009552 C4.17306274 -0.00752777 5.27202881 -0.00550354 6.40429688 -0.00341797 C7.52872192 -0.00437469 8.65314697 -0.00533142 9.81164551 -0.00631714 C12.192302 -0.00699855 14.57296034 -0.00514696 16.95361328 -0.00097656 C20.60778965 0.0043722 24.2618431 -0.00092289 27.91601562 -0.00732422 C30.22460965 -0.00666343 32.53320359 -0.00538225 34.84179688 -0.00341797 C36.49024597 -0.00645432 36.49024597 -0.00645432 38.17199707 -0.009552 C39.18644897 -0.00639984 40.20090088 -0.00324768 41.24609375 0 C42.58939758 0.00119339 42.58939758 0.00119339 43.95983887 0.00241089 C46.12304688 0.12939453 46.12304688 0.12939453 48.12304688 1.12939453 C49.74526893 1.28638376 51.3712572 1.40537255 52.99804688 1.50439453 C58.15189216 1.9271709 62.88079888 2.9910883 67.86083984 4.34545898 C71.00137316 5.10015532 74.05298497 5.5522994 77.25585938 5.94970703 C83.97775028 6.95813371 89.86819524 8.95911184 96.12304688 11.56689453 C97.18958496 12.00283936 98.25612305 12.43878418 99.35498047 12.88793945 C111.1991185 17.83309989 123.52075056 23.23046828 133.93554688 30.83251953 C136.52295662 32.69697655 138.58937833 33.89369551 141.49804688 35.06689453 C152.72541155 40.48285146 162.67897598 50.27363565 171.22460938 59.19580078 C173.08713698 61.09281964 175.02575069 62.79532659 177.06054688 64.50439453 C184.08357942 70.54223213 190.02517867 77.42214319 195.12304688 85.12939453 C196.56071081 86.8964142 198.01940003 88.64652419 199.49804688 90.37939453 C203.62864979 95.37532834 206.92937396 100.50673095 210.12304688 106.12939453 C211.08014632 107.67182752 212.03851027 109.2134765 212.99804688 110.75439453 C219.1588441 121.04941094 224.30517247 131.75631719 228.12304688 143.12939453 C228.52136719 144.20447266 228.9196875 145.27955078 229.33007812 146.38720703 C232.47131925 154.87140512 234.94983789 163.35606939 237.12304688 172.12939453 C237.44789063 173.41330078 237.44789063 173.41330078 237.77929688 174.72314453 C240.16665156 184.69386114 240.27262448 194.70605927 240.25585938 204.91455078 C240.25729446 206.85895302 240.25729446 206.85895302 240.25875854 208.84263611 C240.26022245 211.56982635 240.25812307 214.29698356 240.25341797 217.02416992 C240.24771578 220.49588933 240.25101115 223.96753148 240.25699043 227.43924809 C240.26149958 230.78518829 240.25833071 234.13110839 240.25585938 237.47705078 C240.25788361 238.71165543 240.25990784 239.94626007 240.26199341 241.21827698 C240.23925415 249.64615128 239.9273643 257.75187906 237.74804688 265.94189453 C237.47992188 266.96283203 237.21179688 267.98376953 236.93554688 269.03564453 C236.66742188 270.05658203 236.39929688 271.07751953 236.12304688 272.12939453 C235.78273438 273.56798828 235.78273438 273.56798828 235.43554688 275.03564453 C228.76717637 303.2246653 216.45705831 330.58197675 198.12304688 353.12939453 C197.17908077 354.37451872 196.24116706 355.62426413 195.31054688 356.87939453 C194.79621094 357.56388672 194.281875 358.24837891 193.75195312 358.95361328 C192.64726426 360.4291809 191.55115546 361.91120373 190.46289062 363.39892578 C189.89699219 364.15560547 189.33109375 364.91228516 188.74804688 365.69189453 C188.2453125 366.37380859 187.74257813 367.05572266 187.22460938 367.75830078 C184.77445111 370.52269868 182.07210589 372.81963069 179.27246094 375.22241211 C175.02168803 378.99374186 171.13686601 383.15179134 167.2109375 387.25634766 C163.29334391 391.25852129 159.36046843 394.52614379 154.63452148 397.52758789 C151.72918984 399.38059469 148.90701756 401.33641237 146.07617188 403.30126953 C126.1129075 417.00128653 106.40422787 427.10523504 83.12304688 434.12939453 C82.42501953 434.34321777 81.72699219 434.55704102 81.0078125 434.77734375 C65.82329986 439.40446514 51.62760033 441.28919866 35.77539062 441.26220703 C34.52351456 441.26316376 33.27163849 441.26412048 31.98182678 441.2651062 C28.67933366 441.26595563 25.37688862 441.26196806 22.07440186 441.25634766 C20.06057226 441.25439456 18.04678619 441.25634418 16.03295898 441.25976562 C12.13458261 441.26596753 8.23626974 441.26518858 4.33789062 441.26220703 C2.551605 441.26524338 2.551605 441.26524338 0.72923279 441.26834106 C-7.59247356 441.24509141 -15.60307363 440.906135 -23.68945312 438.75439453 C-28.18948328 437.56856793 -28.18948328 437.56856793 -32.71289062 436.47705078 C-40.35068421 434.70884925 -47.62210655 432.20191237 -54.97851562 429.52783203 C-57.77752532 428.51109209 -60.5826415 427.59720869 -63.43945312 426.75439453 C-79.52964265 421.43249432 -94.11946336 411.31110425 -107.68554688 401.42626953 C-109.76307266 399.93106125 -111.87062478 398.4764457 -114.00976562 397.07080078 C-122.37844094 391.40427267 -129.38482594 383.72291074 -136.43530273 376.53442383 C-139.40355813 373.52415547 -142.39066715 370.6498192 -145.64257812 367.94580078 C-148.23710856 365.76240755 -150.16388975 363.67565782 -151.93945312 360.75439453 C-153.7377164 357.90360446 -155.56042135 355.16715256 -157.62695312 352.50439453 C-166.26980129 341.04811923 -173.32294977 329.04612739 -179.79003906 316.25488281 C-180.73058116 314.41562866 -181.71043399 312.59657672 -182.69726562 310.78173828 C-186.19889403 304.24477872 -188.25448169 297.74872007 -190.00976562 290.58251953 C-190.69349621 287.85991668 -191.46756092 285.31700543 -192.43945312 282.69189453 C-194.17185477 277.76922318 -194.98729172 272.66440913 -195.87524414 267.53588867 C-196.50417711 263.71937653 -196.50417711 263.71937653 -197.87695312 260.12939453 C-198.19022336 257.30996237 -198.38725276 254.48961371 -198.59570312 251.66064453 C-198.72827924 249.1386545 -198.72827924 249.1386545 -199.87695312 247.12939453 C-199.97249378 245.44470117 -200.00490578 243.75624733 -200.00634766 242.06884766 C-200.00949982 241.01435425 -200.01265198 239.95986084 -200.01589966 238.87341309 C-200.01387543 237.73069946 -200.0118512 236.58798584 -200.00976562 235.41064453 C-200.01072235 234.24182739 -200.01167908 233.07301025 -200.01266479 231.86877441 C-200.01334625 229.39396104 -200.01149435 226.91914589 -200.00732422 224.44433594 C-200.00197552 220.64530441 -200.0072704 216.84639111 -200.01367188 213.04736328 C-200.01301109 210.64762344 -200.01172991 208.24788366 -200.00976562 205.84814453 C-200.01178986 204.70543091 -200.01381409 203.56271729 -200.01589966 202.38537598 C-200.0127475 201.33088257 -200.00959534 200.27638916 -200.00634766 199.18994141 C-200.00555206 198.25887573 -200.00475647 197.32781006 -200.00393677 196.36853027 C-199.87695312 194.12939453 -199.87695312 194.12939453 -198.87695312 192.12939453 C-198.72046376 190.48625624 -198.6012337 188.83947935 -198.50195312 187.19189453 C-198.08986542 182.29756053 -197.13712708 177.8856821 -195.75195312 173.18408203 C-194.93411873 170.32896374 -194.22632375 167.46139389 -193.54321289 164.5715332 C-189.78685317 148.8430938 -184.5454855 134.37038939 -176.87695312 120.12939453 C-176.338125 119.10974609 -175.79929687 118.09009766 -175.24414062 117.03955078 C-170.36058494 107.92443244 -165.14017395 99.35370393 -158.87695312 91.12939453 C-158.34279785 90.41936279 -157.80864258 89.70933105 -157.25830078 88.9777832 C-148.41286447 77.23950806 -139.3297645 66.62435707 -128.09570312 57.07080078 C-126.30724802 55.50590256 -124.57180049 53.91377184 -122.84570312 52.28173828 C-114.34647665 44.25168621 -106.02833736 37.47533642 -95.39257812 32.41845703 C-92.83901991 31.10995671 -90.56034225 29.61812874 -88.18945312 28.00439453 C-82.48570358 24.2863343 -76.45362742 21.37320759 -70.31445312 18.44189453 C-69.34483643 17.97831543 -68.37521973 17.51473633 -67.3762207 17.03710938 C-56.55194843 11.93393648 -46.3222493 7.88746753 -34.43945312 6.19189453 C-30.54167261 5.62738839 -27.00146622 4.94784853 -23.31445312 3.56689453 C-18.73069232 1.87141423 -14.23558044 1.60073853 -9.38085938 1.34033203 C-6.01574146 1.05684316 -3.50939109 0.00311774 0 0 Z M-6.37695312 4.94189453 C-7.12775146 5.01182617 -7.8785498 5.08175781 -8.65209961 5.15380859 C-14.78713792 5.85945397 -20.3352695 7.80589251 -26.0949707 9.95825195 C-30.6199777 11.6438409 -34.88962386 12.440019 -39.68945312 13.00439453 C-46.71487845 13.89590729 -52.49140545 16.1782638 -58.87695312 19.12939453 C-59.86695313 19.45939453 -60.85695312 19.78939453 -61.87695312 20.12939453 C-61.87695312 20.78939453 -61.87695312 21.44939453 -61.87695312 22.12939453 C-63.19695312 22.12939453 -64.51695312 22.12939453 -65.87695312 22.12939453 C-65.87695312 22.78939453 -65.87695312 23.44939453 -65.87695312 24.12939453 C-66.68132812 24.19126953 -67.48570312 24.25314453 -68.31445312 24.31689453 C-73.06242709 25.39976579 -76.72380265 27.64914179 -80.87695312 30.12939453 C-84.31264784 32.15666781 -87.67562427 34.04670589 -91.37695312 35.56689453 C-96.18349824 37.7126736 -100.20847915 40.40878074 -103.87695312 44.19189453 C-105.99604477 46.24476457 -108.21910257 47.45300534 -110.79492188 48.85595703 C-115.11392091 51.49759622 -119.17070862 54.68415316 -122.87695312 58.12939453 C-122.87695312 58.78939453 -122.87695312 59.44939453 -122.87695312 60.12939453 C-123.4722583 60.40017822 -124.06756348 60.67096191 -124.6809082 60.94995117 C-126.85098871 62.11544966 -128.27679937 63.27132419 -130.01367188 65.00048828 C-130.873396 65.85416992 -130.873396 65.85416992 -131.75048828 66.72509766 C-132.34909668 67.33289063 -132.94770508 67.94068359 -133.56445312 68.56689453 C-134.18368652 69.19144531 -134.80291992 69.81599609 -135.44091797 70.45947266 C-143.28148579 78.46113407 -150.45304551 86.90407955 -155.87695312 96.75439453 C-157.87695312 100.12939453 -157.87695312 100.12939453 -159.79882812 102.02783203 C-161.99667994 104.25047165 -163.51381356 106.45712293 -165.12695312 109.12939453 C-165.64773437 109.97501953 -166.16851562 110.82064453 -166.70507812 111.69189453 C-168.16581608 114.27946786 -168.16581608 114.27946786 -167.87695312 118.12939453 C-168.53695312 118.12939453 -169.19695312 118.12939453 -169.87695312 118.12939453 C-170.12445313 118.83064453 -170.37195313 119.53189453 -170.62695312 120.25439453 C-171.87695312 123.12939453 -171.87695312 123.12939453 -173.81445312 125.94189453 C-177.38104195 131.45389544 -179.37627052 136.4718293 -178.87695312 143.12939453 C-179.53695312 143.12939453 -180.19695312 143.12939453 -180.87695312 143.12939453 C-183.21523588 149.14367529 -185.17885889 154.70692758 -185.87695312 161.12939453 C-186.20695312 161.45939453 -186.53695312 161.78939453 -186.87695312 162.12939453 C-186.91759145 163.79556568 -186.91967413 165.46327548 -186.87695312 167.12939453 C-187.53695312 167.12939453 -188.19695312 167.12939453 -188.87695312 167.12939453 C-189.05871094 168.27214844 -189.05871094 168.27214844 -189.24414062 169.43798828 C-190.01475835 174.18617905 -190.78055039 178.89642938 -191.93945312 183.56689453 C-193.07345477 188.40412029 -193.34108664 193.26163442 -193.63085938 198.21142578 C-193.87695312 201.12939453 -193.87695312 201.12939453 -194.3840332 202.83837891 C-195.08928817 206.11629499 -195.01944077 209.36715727 -195.00976562 212.70361328 C-195.01072235 213.4280513 -195.01167908 214.15248932 -195.01266479 214.89888 C-195.01334345 216.42436816 -195.01151112 217.94985924 -195.00732422 219.4753418 C-195.00194812 221.81907554 -195.00729171 224.16261967 -195.01367188 226.50634766 C-195.0130115 227.98876996 -195.01173117 229.47119214 -195.00976562 230.95361328 C-195.01178986 231.65773849 -195.01381409 232.36186371 -195.01589966 233.08732605 C-195.28627225 236.39085211 -195.28627225 236.39085211 -193.87695312 239.12939453 C-193.68807247 241.06317262 -193.55220001 243.00218792 -193.43945312 244.94189453 C-192.98476742 251.43537476 -192.07685459 257.73575898 -190.87695312 264.12939453 C-190.62751953 265.47904297 -190.62751953 265.47904297 -190.37304688 266.85595703 C-189.44305801 271.70361555 -188.26620234 276.38960309 -186.87695312 281.12939453 C-185.85441465 285.12384287 -184.86305741 289.12581113 -183.87695312 293.12939453 C-183.21695313 293.12939453 -182.55695313 293.12939453 -181.87695312 293.12939453 C-181.77382812 293.95439453 -181.67070312 294.77939453 -181.56445312 295.62939453 C-180.7710193 299.66869402 -179.39880515 303.32476447 -177.87695312 307.12939453 C-177.565 307.95052734 -177.25304687 308.77166016 -176.93164062 309.61767578 C-174.95404868 314.74851473 -172.73636606 319.43178757 -169.87695312 324.12939453 C-169.21695313 324.12939453 -168.55695313 324.12939453 -167.87695312 324.12939453 C-167.58820313 325.05751953 -167.29945313 325.98564453 -167.00195312 326.94189453 C-165.98945312 330.2273112 -165.98945312 330.2273112 -163.87695312 333.12939453 C-163.21695313 333.12939453 -162.55695313 333.12939453 -161.87695312 333.12939453 C-161.79445312 333.64501953 -161.71195313 334.16064453 -161.62695312 334.69189453 C-159.78718975 340.67112552 -156.07740788 345.59732492 -151.87695312 350.12939453 C-151.21695313 350.12939453 -150.55695313 350.12939453 -149.87695312 350.12939453 C-149.79703125 350.85513672 -149.71710938 351.58087891 -149.63476562 352.32861328 C-148.69667168 355.79569247 -147.220497 357.35201545 -144.75195312 359.94189453 C-143.92824219 360.81974609 -143.10453125 361.69759766 -142.25585938 362.60205078 C-141.47082031 363.43607422 -140.68578125 364.27009766 -139.87695312 365.12939453 C-138.80826191 366.37410548 -137.74527543 367.62374908 -136.68945312 368.87939453 C-122.19907821 386.62391609 -122.19907821 386.62391609 -102.87695312 396.12939453 C-102.87695312 396.78939453 -102.87695312 397.44939453 -102.87695312 398.12939453 C-102.21695313 398.12939453 -101.55695313 398.12939453 -100.87695312 398.12939453 C-100.38195312 399.61439453 -100.38195312 399.61439453 -99.87695312 401.12939453 C-97.63306875 402.8101307 -95.42850486 404.32718555 -93.06445312 405.81689453 C-92.11989258 406.44047852 -92.11989258 406.44047852 -91.15625 407.07666016 C-87.7087416 409.2797374 -86.0653392 410.12939453 -81.87695312 410.12939453 C-81.87695312 410.78939453 -81.87695312 411.44939453 -81.87695312 412.12939453 C-76.69613262 415.47534111 -73.02917748 416.69765949 -66.87695312 417.12939453 C-66.87695312 417.78939453 -66.87695312 418.44939453 -66.87695312 419.12939453 C-63.2572191 420.44566145 -60.78128182 421.12939453 -56.87695312 421.12939453 C-56.87695312 421.78939453 -56.87695312 422.44939453 -56.87695312 423.12939453 C-52.69957839 424.72077538 -49.34534528 425.34217511 -44.87695312 425.12939453 C-44.87695312 425.78939453 -44.87695312 426.44939453 -44.87695312 427.12939453 C-30.70714953 432.03125747 -30.70714953 432.03125747 -15.87695312 433.12939453 C-15.87695312 433.78939453 -15.87695312 434.44939453 -15.87695312 435.12939453 C-14.67296875 435.18998047 -13.46898437 435.25056641 -12.22851562 435.31298828 C-10.65298235 435.39739185 -9.07746217 435.48203994 -7.50195312 435.56689453 C-6.31085938 435.62586914 -6.31085938 435.62586914 -5.09570312 435.68603516 C0.89648437 436.01611328 0.89648437 436.01611328 3.12304688 437.12939453 C5.63492292 437.25287421 8.11781936 437.31782767 10.63085938 437.33251953 C11.38914032 437.3382196 12.14742126 437.34391968 12.92868042 437.34979248 C14.54439905 437.35925817 16.16013713 437.36578267 17.77587891 437.36962891 C20.19015258 437.37916584 22.60351072 437.4100978 25.01757812 437.44189453 C34.25047861 437.50360162 42.81373355 436.75943374 51.84716797 434.81958008 C54.47369185 434.26620528 56.95290316 433.87926711 59.62304688 433.69189453 C66.58086003 433.06555519 73.38863831 430.9059563 80.12304688 429.12939453 C80.12304688 428.46939453 80.12304688 427.80939453 80.12304688 427.12939453 C80.87328125 427.10361328 81.62351562 427.07783203 82.39648438 427.05126953 C94.0736827 426.40417038 102.90174878 421.85535085 113.11914062 416.61767578 C116.12304687 415.12939453 116.12304687 415.12939453 119.12304688 414.12939453 C119.12304688 413.46939453 119.12304688 412.80939453 119.12304688 412.12939453 C119.95191406 411.89736328 120.78078125 411.66533203 121.63476562 411.42626953 C125.78874275 409.88190177 129.2249604 407.77183934 132.93554688 405.37939453 C133.63679688 404.93273437 134.33804687 404.48607422 135.06054688 404.02587891 C136.45012535 403.1384494 137.83772311 402.24790936 139.22314453 401.35400391 C140.86479669 400.2958534 142.51466859 399.25047555 144.16601562 398.20751953 C144.97683594 397.68673828 145.78765625 397.16595703 146.62304688 396.62939453 C147.31398438 396.18595703 148.00492187 395.74251953 148.71679688 395.28564453 C149.18085938 394.90408203 149.64492188 394.52251953 150.12304688 394.12939453 C150.12304688 393.46939453 150.12304688 392.80939453 150.12304688 392.12939453 C150.83203125 391.90380859 151.54101562 391.67822266 152.27148438 391.44580078 C155.75859057 389.8359997 157.97816393 387.71850424 160.74804688 385.06689453 C165.81004173 380.23372958 165.81004173 380.23372958 169.12304688 379.12939453 C170.83919536 377.47404243 170.83919536 377.47404243 172.49804688 375.44189453 C173.4184375 374.36101562 173.4184375 374.36101562 174.35742188 373.25830078 C175.41704274 371.98066058 176.47105628 370.698293 177.51367188 369.40673828 C179.44142151 367.02145313 181.23036875 365.04824872 183.68554688 363.19189453 C186.16432058 361.09447063 187.33833557 359.14253174 188.83789062 356.30126953 C190.50101693 353.49063663 192.45058454 350.97227258 194.43554688 348.37939453 C203.42684672 336.5379114 212.20557035 323.25855922 217.33398438 309.21533203 C218.12304688 307.12939453 218.12304688 307.12939453 219.22460938 305.10595703 C220.3989155 302.8843456 220.3989155 302.8843456 220.12304688 299.12939453 C220.78304688 299.12939453 221.44304687 299.12939453 222.12304688 299.12939453 C225.65348656 290.88512755 227.53370319 282.40976552 229.37182617 273.66015625 C229.67020386 272.26821045 229.67020386 272.26821045 229.97460938 270.84814453 C230.14814941 270.0121875 230.32168945 269.17623047 230.50048828 268.31494141 C231.12304688 266.12939453 231.12304688 266.12939453 233.12304688 263.12939453 C236.65010702 250.85588086 236.55755579 238.36463302 236.45922852 225.70141602 C236.43551077 222.43692469 236.43870656 219.17324798 236.4453125 215.90869141 C236.43014583 205.48502559 236.31757224 195.36339461 234.12304688 185.12939453 C233.46304687 185.12939453 232.80304688 185.12939453 232.12304688 185.12939453 C232.14044922 184.06398437 232.14044922 184.06398437 232.15820312 182.97705078 C232.16722656 182.05794922 232.17625 181.13884766 232.18554688 180.19189453 C232.20294922 178.81710938 232.20294922 178.81710938 232.22070312 177.41455078 C232.38253737 175.16346126 232.38253737 175.16346126 231.12304688 174.12939453 C230.84311737 172.76017414 230.60058724 171.38328915 230.37304688 170.00439453 C229.015914 162.82202977 226.52808602 156.01404856 224.12304688 149.12939453 C223.46304687 149.12939453 222.80304688 149.12939453 222.12304688 149.12939453 C222.20167969 148.13810547 222.2803125 147.14681641 222.36132812 146.12548828 C222.35783139 141.48998357 220.50588443 138.17887359 218.31054688 134.19189453 C215.48813954 128.92986566 213.11913668 123.76504241 211.12304688 118.12939453 C210.13304687 118.12939453 209.14304687 118.12939453 208.12304688 118.12939453 C208.06117188 116.67533203 208.06117188 116.67533203 207.99804688 115.19189453 C207.30163312 110.1195078 204.40205556 105.96505191 201.12304688 102.12939453 C200.46304687 102.12939453 199.80304688 102.12939453 199.12304688 102.12939453 C198.97867187 101.51064453 198.83429688 100.89189453 198.68554688 100.25439453 C198.19152462 98.09681131 198.19152462 98.09681131 197.12304688 96.12939453 C196.46304687 96.12939453 195.80304688 96.12939453 195.12304688 96.12939453 C195.03667969 95.58283203 194.9503125 95.03626953 194.86132812 94.47314453 C189.5846248 77.72170541 166.17748409 58.80876897 152.12304688 49.12939453 C151.46304687 49.12939453 150.80304688 49.12939453 150.12304688 49.12939453 C150.12304688 48.46939453 150.12304688 47.80939453 150.12304688 47.12939453 C148.49721178 46.06429453 146.81980209 45.07744492 145.12304688 44.12939453 C143.20108403 42.95048563 141.28446589 41.76282292 139.37304688 40.56689453 C138.40882813 39.96748047 137.44460938 39.36806641 136.45117188 38.75048828 C134.12304688 37.12939453 134.12304688 37.12939453 133.12304688 35.12939453 C132.13304687 34.79939453 131.14304687 34.46939453 130.12304688 34.12939453 C129.13304687 33.79939453 128.14304687 33.46939453 127.12304688 33.12939453 C126.79304688 32.46939453 126.46304687 31.80939453 126.12304688 31.12939453 C124.51599643 30.15601985 124.51599643 30.15601985 122.55273438 29.28955078 C121.82054687 28.94859375 121.08835937 28.60763672 120.33398438 28.25634766 C119.17769531 27.72944336 119.17769531 27.72944336 117.99804688 27.19189453 C117.25039063 26.84449219 116.50273437 26.49708984 115.73242188 26.13916016 C107.87992939 22.50704037 99.93990967 19.2679398 91.8203125 16.29150391 C86.42894169 14.29602984 86.42894169 14.29602984 84.11523438 13.03564453 C80.44930864 11.36800772 76.35959 11.00485246 72.40625 10.36181641 C68.66871076 9.71568976 65.18591614 8.8642954 61.60351562 7.60595703 C57.4884973 6.18435719 53.45283456 5.37244279 49.12304688 4.94189453 C47.95116821 4.82346191 47.95116821 4.82346191 46.75561523 4.70263672 C29.2802472 3.1894477 11.07804549 3.27643852 -6.37695312 4.94189453 Z " fill="#F1F1F1" transform="translate(229.876953125,27.87060546875)"/>
<path d="M0 0 C0.66 0 1.32 0 2 0 C2.15855469 0.88816406 2.31710937 1.77632812 2.48046875 2.69140625 C4.04537386 11.25947788 5.75073416 19.79311787 7.5625 28.3125 C7.77221436 29.32062744 7.98192871 30.32875488 8.19799805 31.36743164 C8.40207275 32.31481201 8.60614746 33.26219238 8.81640625 34.23828125 C8.99631104 35.08430908 9.17621582 35.93033691 9.36157227 36.80200195 C9.95601327 39.25967031 9.95601327 39.25967031 12 42 C12.125 45.1875 12.125 45.1875 12 48 C12.66 48 13.32 48 14 48 C14.10957031 48.78503906 14.21914063 49.57007813 14.33203125 50.37890625 C15.23505581 56.36236165 16.27040375 61.54080749 19 67 C19.6875 68.375 20.375 69.75 21.0625 71.125 C21.39894531 71.79402344 21.73539062 72.46304688 22.08203125 73.15234375 C24.14083436 77.29623257 25.26694948 80.32838418 25 85 C25.66 85 26.32 85 27 85 C28.17154293 87.28929053 29.33738074 89.58118362 30.5 91.875 C30.83386719 92.52597656 31.16773438 93.17695313 31.51171875 93.84765625 C34 98.7734375 34 98.7734375 34 101 C23.44 101 12.88 101 2 101 C2.00523682 104.41786865 2.01047363 107.8357373 2.01586914 111.35717773 C2.0324023 122.62088161 2.04352095 133.88458642 2.05181217 145.14829922 C2.05697493 151.98078974 2.06401723 158.81326879 2.07543945 165.64575195 C2.08644707 172.23335305 2.09227623 178.82094531 2.09487724 185.40855598 C2.096732 187.92808279 2.10035357 190.44760891 2.10573006 192.96713066 C2.11293676 196.48257765 2.1139911 199.99797461 2.11352539 203.51342773 C2.11712067 204.56646591 2.12071594 205.61950409 2.12442017 206.70445251 C2.1230455 207.65662659 2.12167084 208.60880066 2.12025452 209.58982849 C2.12117631 210.42220756 2.1220981 211.25458662 2.12304783 212.11218929 C2 214 2 214 1 215 C-0.35094982 215.09268999 -1.70667091 215.11747326 -3.06079102 215.11352539 C-3.92160782 215.11344986 -4.78242462 215.11337433 -5.66932678 215.11329651 C-6.60473801 215.10813522 -7.54014923 215.10297394 -8.50390625 215.09765625 C-9.45692123 215.0962413 -10.40993622 215.09482635 -11.39183044 215.09336853 C-14.44875165 215.08775152 -17.50560077 215.07519616 -20.5625 215.0625 C-22.62955624 215.05748719 -24.69661362 215.05292391 -26.76367188 215.04882812 C-31.84247588 215.03777656 -36.9212257 215.02050055 -42 215 C-42 214.67 -42 214.34 -42 214 C-28.08168429 212.45352048 -14.00396769 213 0 213 C0 142.71 0 72.42 0 0 Z " fill="#EC4D7C" transform="translate(350,161)"/>
<path d="M0 0 C2 1 2 1 2.81640625 3.03125 C3.06261719 3.8459375 3.30882812 4.660625 3.5625 5.5 C4.32548337 8.51331493 4.32548337 8.51331493 6 11 C6.061875 11.969375 6.12375 12.93875 6.1875 13.9375 C6.72600203 18.59169609 9.28813174 21.89833782 11.91796875 25.66796875 C13 28 13 28 12.4921875 29.953125 C10.50268477 32.6821811 8.26311762 35.12278052 5.9375 37.5625 C1.47451742 42.33014303 -2.71045835 47.2480914 -6.80859375 52.3359375 C-9.73829506 55.89753517 -12.82607973 59.30138536 -15.92578125 62.71484375 C-21.15401146 68.35815789 -21.15401146 68.35815789 -25.5625 74.625 C-27.96659701 78.59698636 -30.56236213 81.52078738 -35 83 C-34.71351907 77.68720655 -34.42143162 72.37474602 -34.125 67.0625 C-34.08086975 66.270784 -34.0367395 65.47906799 -33.99127197 64.6633606 C-33.36007768 53.42528351 -32.6198861 42.20601006 -31.60986328 30.99438477 C-31.08461145 24.97829608 -30.89697287 19.0385345 -31 13 C-28.5 15.3125 -28.5 15.3125 -26 18 C-26 18.99 -26 19.98 -26 21 C-25.01 21.33 -24.02 21.66 -23 22 C-21.28125 23.92578125 -21.28125 23.92578125 -19.5 26.3125 C-18.61828125 27.48232422 -18.61828125 27.48232422 -17.71875 28.67578125 C-16.60979169 30.17539533 -15.52435909 31.69283408 -14.46875 33.23046875 C-13.02699561 35.28434474 -13.02699561 35.28434474 -10 36 C-9.59201172 35.12988281 -9.59201172 35.12988281 -9.17578125 34.2421875 C-7.22057426 30.51365324 -4.58236196 27.31202198 -2 24 C-1.52691406 23.38898438 -1.05382812 22.77796875 -0.56640625 22.1484375 C0.57153537 20.72347797 1.78009355 19.35545161 3 18 C3.66 18 4.32 18 5 18 C3.68440407 13.24361472 2.20665188 8.57952842 0.5859375 3.91796875 C0 2 0 2 0 0 Z " fill="#E84D7B" transform="translate(184,217)"/>
<path d="M0 0 C0.66 0 1.32 0 2 0 C2.06058594 0.98742187 2.12117187 1.97484375 2.18359375 2.9921875 C2.26738281 4.27351562 2.35117188 5.55484375 2.4375 6.875 C2.51871094 8.15117187 2.59992188 9.42734375 2.68359375 10.7421875 C2.79206027 13.88300152 2.79206027 13.88300152 4 16 C4.039992 17.99960012 4.04346799 20.00047242 4 22 C4.66 22 5.32 22 6 22 C6.33 25.96 6.66 29.92 7 34 C7.66 34 8.32 34 9 34 C10.4606285 36.64738916 11 37.89448334 11 41 C11.66 41 12.32 41 13 41 C13.391875 41.680625 13.78375 42.36125 14.1875 43.0625 C16.25189489 46.40824344 18.68986678 48.712052 21.57421875 51.3515625 C23 53 23 53 23 56 C26.08809695 57.76462683 27.23312136 58 31 58 C31 58.66 31 59.32 31 60 C25.87767177 64.56856302 22.39390255 65.15425392 15.625 65.1875 C14.31789062 65.20167969 13.01078125 65.21585937 11.6640625 65.23046875 C6.36642459 64.89724846 3.07110335 63.31719533 -1 60 C-1.33 61.32 -1.66 62.64 -2 64 C-2 62.68 -2 61.36 -2 60 C-2.66 60 -3.32 60 -4 60 C-6.67927341 55.98108988 -6.15601248 53.75838077 -6 49 C-6.66 49 -7.32 49 -8 49 C-9.0479253 43.85185906 -9.14979065 38.91419576 -9.125 33.6875 C-9.12886719 32.88376953 -9.13273438 32.08003906 -9.13671875 31.25195312 C-9.12788687 25.76294041 -8.68823718 20.44581326 -8 15 C-7.01 14.67 -6.02 14.34 -5 14 C-4.95101562 13.38511719 -4.90203125 12.77023438 -4.8515625 12.13671875 C-4.77679688 11.32847656 -4.70203125 10.52023438 -4.625 9.6875 C-4.55539063 8.88699219 -4.48578125 8.08648437 -4.4140625 7.26171875 C-4 5 -4 5 -2 2 C-1.34 2 -0.68 2 0 2 C0 1.34 0 0.68 0 0 Z " fill="#E9527F" transform="translate(226,145)"/>
<path d="M0 0 C2.9735474 2.82517913 4.93307737 5.423983 6.77734375 9.12109375 C9.15138526 12.76938119 12.55201033 15.56966832 15.67578125 18.5703125 C16.54589844 19.41335938 17.41601562 20.25640625 18.3125 21.125 C19.63701172 22.39730469 19.63701172 22.39730469 20.98828125 23.6953125 C23 26 23 26 23 29 C23.66 29 24.32 29 25 29 C25.433125 29.598125 25.86625 30.19625 26.3125 30.8125 C27.86485708 33.09974065 27.86485708 33.09974065 30.1875 34.3125 C34.17933044 36.70759826 37.75450624 39.65786623 41 43 C41 43.66 41 44.32 41 45 C27.04282739 45.49995842 14.52553293 44.47323878 1 41 C-0.51414969 40.62170181 -2.02846568 40.24406845 -3.54296875 39.8671875 C-4.68378906 39.58101563 -5.82460938 39.29484375 -7 39 C-7 38.01 -7 37.02 -7 36 C-5.35 36.33 -3.7 36.66 -2 37 C-1.15247886 32.51809107 -0.81541891 28.19019652 -0.68359375 23.6328125 C-0.66281265 22.95322479 -0.64203156 22.27363708 -0.62062073 21.57345581 C-0.5557637 19.42406334 -0.49654059 17.2745593 -0.4375 15.125 C-0.39425388 13.6588431 -0.35063775 12.19269706 -0.30664062 10.7265625 C-0.20014896 7.15115725 -0.09870591 3.57562963 0 0 Z " fill="#ED4F7E" transform="translate(294,250)"/>
<path d="M0 0 C3.56106206 2.49803125 5.00073076 4.48315951 6.75 8.5 C7.17796875 9.4590625 7.6059375 10.418125 8.046875 11.40625 C9 14 9 14 9 17 C9.66 17 10.32 17 11 17 C11 17.66 11 18.32 11 19 C11.66 19 12.32 19 13 19 C13.66 21.31 14.32 23.62 15 26 C15.66 26 16.32 26 17 26 C17.391875 27.051875 17.78375 28.10375 18.1875 29.1875 C19.76402557 32.91658932 21.96895425 35.29663487 25 38 C24.67 38.66 24.34 39.32 24 40 C23.505 39.505 23.505 39.505 23 39 C22.67 39.66 22.34 40.32 22 41 C21.01 41 20.02 41 19 41 C18.87625 42.0725 18.7525 43.145 18.625 44.25 C18.10280215 47.3831871 17.70882871 49.38649726 16 52 C15.01 52.495 15.01 52.495 14 53 C12.12771745 57.60269461 10.53587717 62.27422409 9 67 C8.34 67 7.68 67 7 67 C7 68.32 7 69.64 7 71 C6.34 71 5.68 71 5 71 C4.67 74.3 4.34 77.6 4 81 C3.67 81 3.34 81 3 81 C2.97716446 80.36630493 2.95432892 79.73260986 2.93080139 79.07971191 C2.6915812 72.46053328 2.44741964 65.84154979 2.20043945 59.22265625 C2.10901225 56.75525462 2.01882822 54.2878066 1.92993164 51.8203125 C1.80164284 48.2654944 1.66882565 44.71086935 1.53515625 41.15625 C1.49656998 40.06010376 1.4579837 38.96395752 1.41822815 37.83459473 C1.20022175 32.15901211 0.74388523 26.6283217 0 21 C-0.07167662 19.20947171 -0.1088558 17.41692736 -0.09765625 15.625 C-0.09443359 14.70332031 -0.09121094 13.78164063 -0.08789062 12.83203125 C-0.07951172 11.89746094 -0.07113281 10.96289062 -0.0625 10 C-0.05798828 9.03449219 -0.05347656 8.06898438 -0.04882812 7.07421875 C-0.03715417 4.71607911 -0.02078021 2.35807398 0 0 Z " fill="#ED4C7C" transform="translate(211,260)"/>
<path d="M0 0 C0.66 0 1.32 0 2 0 C2.02332542 27.88486238 2.04097741 55.76972331 2.05181217 83.65459347 C2.05697589 96.60103112 2.06402003 109.54746272 2.07543945 122.49389648 C2.08538398 133.77355073 2.09185287 145.05320059 2.09408849 156.3328591 C2.095396 162.30935906 2.09848433 168.28584649 2.10573006 174.26234245 C2.11248663 179.8805608 2.11461771 185.49876139 2.11310768 191.11698341 C2.11338417 193.18547538 2.11539144 195.2539679 2.11920547 197.32245636 C2.12413705 200.13348582 2.12300028 202.94444706 2.12025452 205.75547791 C2.12316736 206.585228 2.1260802 207.41497809 2.12908131 208.26987213 C2.11412121 213.88587879 2.11412121 213.88587879 1 215 C-0.35094982 215.09268999 -1.70667091 215.11747326 -3.06079102 215.11352539 C-3.92160782 215.11344986 -4.78242462 215.11337433 -5.66932678 215.11329651 C-6.60473801 215.10813522 -7.54014923 215.10297394 -8.50390625 215.09765625 C-9.45692123 215.0962413 -10.40993622 215.09482635 -11.39183044 215.09336853 C-14.44875165 215.08775152 -17.50560077 215.07519616 -20.5625 215.0625 C-22.62955624 215.05748719 -24.69661362 215.05292391 -26.76367188 215.04882812 C-31.84247588 215.03777656 -36.9212257 215.02050055 -42 215 C-42 214.67 -42 214.34 -42 214 C-28.08168429 212.45352048 -14.00396769 213 0 213 C0 142.71 0 72.42 0 0 Z " fill="#C7AAB3" transform="translate(350,161)"/>
<path d="M0 0 C1.32 0.66 2.64 1.32 4 2 C3.67 2.66 3.34 3.32 3 4 C2.34 3.67 1.68 3.34 1 3 C0.90912109 4.28197266 0.90912109 4.28197266 0.81640625 5.58984375 C0.73261719 6.69457031 0.64882812 7.79929688 0.5625 8.9375 C0.48128906 10.03964844 0.40007812 11.14179688 0.31640625 12.27734375 C0 15 0 15 -1 16 C-1.27682198 17.92980679 -1.492757 19.86839634 -1.68359375 21.80859375 C-1.80557129 23.02232666 -1.92754883 24.23605957 -2.05322266 25.48657227 C-2.18003418 26.79037842 -2.3068457 28.09418457 -2.4375 29.4375 C-2.63668427 31.43750196 -2.8374113 33.43734506 -3.03826904 35.43717957 C-3.23678113 37.41474338 -3.43406907 39.39242994 -3.63134766 41.37011719 C-4.09529614 45.93831987 -4.60194513 50.50075058 -5.125 55.0625 C-5.80132699 60.97121245 -6.3500624 66.87846797 -6.75390625 72.8125 C-7 75 -7 75 -8 77 C-8.66 77 -9.32 77 -10 77 C-9.98259766 78.12148438 -9.98259766 78.12148438 -9.96484375 79.265625 C-9.95130859 80.74289062 -9.95130859 80.74289062 -9.9375 82.25 C-9.92589844 83.22453125 -9.91429688 84.1990625 -9.90234375 85.203125 C-10 88 -10 88 -10.47485352 89.75830078 C-11.16990028 92.7252554 -11.3141447 95.62275623 -11.5 98.6640625 C-11.5825 99.95054687 -11.665 101.23703125 -11.75 102.5625 C-11.87618438 104.60116636 -12.00090788 106.6399162 -12.125 108.67871094 C-12.24644964 110.65321637 -12.37314599 112.62739691 -12.5 114.6015625 C-12.5721875 115.78057129 -12.644375 116.95958008 -12.71875 118.17431641 C-13 121 -13 121 -14 123 C-14.22467831 124.53668865 -14.40796805 126.07968054 -14.5625 127.625 C-14.64628906 128.44226563 -14.73007813 129.25953125 -14.81640625 130.1015625 C-14.87699219 130.72804688 -14.93757813 131.35453125 -15 132 C-15.33 132 -15.66 132 -16 132 C-16.02684679 129.35409986 -16.04676357 126.70846904 -16.0625 124.0625 C-16.07087891 123.30775391 -16.07925781 122.55300781 -16.08789062 121.77539062 C-16.09652441 119.85005687 -16.05224333 117.92464419 -16 116 C-15.505 115.505 -15.505 115.505 -15 115 C-14.78307016 112.94217944 -14.62836107 110.87773787 -14.5 108.8125 C-14.4175 107.55695313 -14.335 106.30140625 -14.25 105.0078125 C-14.16613744 103.67190812 -14.08281073 102.33597 -14 101 C-13.83855407 98.39542311 -13.6711039 95.79148748 -13.5 93.1875 C-13.4278125 92.02605469 -13.355625 90.86460937 -13.28125 89.66796875 C-13 87 -13 87 -12 86 C-11.79031249 83.67013877 -11.63184611 81.33555964 -11.5 79 C-11.11111111 72.11111111 -11.11111111 72.11111111 -10 71 C-9.76472227 68.65012738 -9.58613583 66.29443961 -9.4375 63.9375 C-9.35371094 62.64714844 -9.26992187 61.35679687 -9.18359375 60.02734375 C-9.12300781 59.02832031 -9.06242187 58.02929688 -9 57 C-8.34 57 -7.68 57 -7 57 C-6.26589399 47.00366283 -5.61066483 37.00450892 -5 27 C-4.34 27 -3.68 27 -3 27 C-3.02320312 26.154375 -3.04640625 25.30875 -3.0703125 24.4375 C-3.17508299 17.85192604 -2.87937608 12.30143746 -1 6 C-0.6435691 4.00398694 -0.30077325 2.005155 0 0 Z " fill="#4B4A4A" transform="translate(122,191)"/>
<path d="M0 0 C0.66 0 1.32 0 2 0 C4.95363432 9.51028355 6.47739287 19.18404341 8 29 C7.34 29 6.68 29 6 29 C5.66048381 27.43883181 5.32867456 25.87598662 5 24.3125 C4.814375 23.44238281 4.62875 22.57226562 4.4375 21.67578125 C4.01027953 19.06287036 3.92383799 16.64186962 4 14 C3.34 14 2.68 14 2 14 C2 40.07 2 66.14 2 93 C1.67 93 1.34 93 1 93 C0.1813617 61.9940742 -0.13731524 31.01634492 0 0 Z " fill="#EF668F" transform="translate(351,169)"/>
<path d="M0 0 C0 0.33 0 0.66 0 1 C-7.75 1.125 -7.75 1.125 -10 0 C-20.22474526 -1.12357906 -30.5243279 -1.15850721 -40.79833984 -1.13037109 C-43.1299484 -1.12498858 -45.46136579 -1.13036827 -47.79296875 -1.13671875 C-60.9281399 -1.1554987 -60.9281399 -1.1554987 -74 0 C-74.33 0.33 -74.66 0.66 -75 1 C-76.42445647 1.42184715 -77.86545725 1.78869874 -79.3125 2.125 C-80.48232422 2.40730469 -80.48232422 2.40730469 -81.67578125 2.6953125 C-84.10736639 3.01407492 -85.6864786 2.7517621 -88 2 C-87.28972656 1.79503906 -86.57945312 1.59007812 -85.84765625 1.37890625 C-84.92855469 1.10949219 -84.00945312 0.84007812 -83.0625 0.5625 C-82.14597656 0.29566406 -81.22945312 0.02882813 -80.28515625 -0.24609375 C-78.0597507 -0.79026051 -78.0597507 -0.79026051 -77 -2 C-55.58545256 -5.45966156 -20.21750121 -9.32512653 0 0 Z " fill="#8A8989" transform="translate(292,36)"/>
<path d="M0 0 C1.46726798 3.81489674 0.43336419 6.29011622 -1 10 C-1.66 10 -2.32 10 -3 10 C-2.9071875 11.85625 -2.9071875 11.85625 -2.8125 13.75 C-2.8002935 17.65607936 -3.40663967 20.98685938 -4.4375 24.75 C-5.9382442 30.24568297 -6.49672327 35.50776631 -6.7890625 41.1875 C-7 44 -7 44 -7.4934082 45.70019531 C-8.21658251 48.98323241 -8.23662374 52.26201935 -8.31640625 55.609375 C-8.33718735 56.33618469 -8.35796844 57.06299438 -8.37937927 57.81182861 C-8.44455512 60.12445991 -8.5036104 62.43720093 -8.5625 64.75 C-8.60571566 66.32162575 -8.64933092 67.89324056 -8.69335938 69.46484375 C-8.80020356 73.30978453 -8.90156024 77.15483524 -9 81 C-9.33 81 -9.66 81 -10 81 C-10.40676391 44.45695601 -10.40676391 44.45695601 -8 30 C-7.82082031 28.72769531 -7.64164063 27.45539063 -7.45703125 26.14453125 C-6.17898437 17.17898437 -6.17898437 17.17898437 -5 16 C-4.814375 14.4840625 -4.814375 14.4840625 -4.625 12.9375 C-3.97575916 8.8472827 -3.04184442 3.04184442 0 0 Z " fill="#ACABAB" transform="translate(44,185)"/>
<path d="M0 0 C0.66 0.33 1.32 0.66 2 1 C3.03466471 4.10399414 3.05555448 5.99014307 2.9140625 9.2265625 C2.87023437 10.25910156 2.82640625 11.29164063 2.78125 12.35546875 C2.7296875 13.43441406 2.678125 14.51335937 2.625 15.625 C2.58117187 16.68074219 2.53734375 17.73648438 2.4921875 18.82421875 C2.25400267 24.16352869 1.87192196 29.43443871 1.23193359 34.73925781 C0.68089184 40.1104648 0.59387598 45.52263329 0.39453125 50.91601562 C0.17587253 56.333474 -0.24108158 61.63065219 -1 67 C-1.33 67 -1.66 67 -2 67 C-1.88193803 61.33985838 -1.75770328 55.67989917 -1.62768555 50.02001953 C-1.58430999 48.09362496 -1.54263686 46.16719129 -1.50268555 44.24072266 C-1.44504638 41.47546592 -1.38133384 38.7104065 -1.31640625 35.9453125 C-1.29969376 35.0806839 -1.28298126 34.2160553 -1.26576233 33.32522583 C-1.11387171 27.22774341 -1.11387171 27.22774341 0 25 C0.084915 23.1136088 0.107193 21.22421485 0.09765625 19.3359375 C0.09443359 18.21445313 0.09121094 17.09296875 0.08789062 15.9375 C0.07951172 14.761875 0.07113281 13.58625 0.0625 12.375 C0.05798828 11.19164062 0.05347656 10.00828125 0.04882812 8.7890625 C0.03701467 5.85932493 0.02054258 2.92968728 0 0 Z " fill="#F6C6D4" transform="translate(151,228)"/>
<path d="M0 0 C1.32 0.99 2.64 1.98 4 3 C3.67 3.66 3.34 4.32 3 5 C2.67 4.67 2.34 4.34 2 4 C1.97314905 6.47923801 1.95323453 8.9581884 1.9375 11.4375 C1.92912109 12.14455078 1.92074219 12.85160156 1.91210938 13.58007812 C1.90346412 15.38693559 1.94779989 17.19387603 2 19 C2.33 19.33 2.66 19.66 3 20 C3.08874135 23.10251201 3.11518455 26.1826812 3.09765625 29.28515625 C3.09553383 30.68138466 3.09553383 30.68138466 3.09336853 32.1058197 C3.08775172 35.09141191 3.0751964 38.07693029 3.0625 41.0625 C3.05748716 43.08137913 3.05292388 45.10025943 3.04882812 47.11914062 C3.03777683 52.07945572 3.02050095 57.03971532 3 62 C2.67 62 2.34 62 2 62 C1.97494385 61.04222656 1.9498877 60.08445312 1.92407227 59.09765625 C1.82922028 55.51176755 1.72919627 51.92603789 1.62768555 48.34033203 C1.58462851 46.79447169 1.54293574 45.24857269 1.50268555 43.70263672 C1.44426697 41.46830639 1.38078733 39.23416556 1.31640625 37 C1.29969376 36.31945557 1.28298126 35.63891113 1.26576233 34.93774414 C1.16310313 31.54027165 0.93142445 28.20285867 0.48632812 24.8359375 C0.08918793 21.70347429 -0.1173316 18.77305625 -0.09765625 15.625 C-0.09443359 14.70332031 -0.09121094 13.78164063 -0.08789062 12.83203125 C-0.07951172 11.89746094 -0.07113281 10.96289062 -0.0625 10 C-0.05798828 9.03449219 -0.05347656 8.06898438 -0.04882812 7.07421875 C-0.03715417 4.71607911 -0.02078021 2.35807398 0 0 Z " fill="#F0648D" transform="translate(211,260)"/>
<path d="M0 0 C5.4951953 -0.02493457 10.99035682 -0.04296987 16.4855957 -0.05493164 C18.3505104 -0.0599245 20.21542126 -0.06672112 22.08032227 -0.07543945 C48.62579685 -0.19632696 48.62579685 -0.19632696 56 3 C56 3.33 56 3.66 56 4 C48.25 4.125 48.25 4.125 46 3 C35.56968611 1.93263443 25.03752807 1.74146564 14.5625 1.4375 C13.13736226 1.39412695 11.71223198 1.35050811 10.28710938 1.30664062 C6.85815367 1.20161157 3.42911103 1.09984585 0 1 C0 0.67 0 0.34 0 0 Z " fill="#333232" transform="translate(236,33)"/>
<path d="M0 0 C0.33 0 0.66 0 1 0 C1.33 8.91 1.66 17.82 2 27 C3.98 26.34 5.96 25.68 8 25 C6.4411666 28.82622743 4.04566418 31.25147379 1 34 C-0.485 34.495 -0.485 34.495 -2 35 C-1.34 23.45 -0.68 11.9 0 0 Z " fill="#F06A92" transform="translate(151,265)"/>
<path d="M0 0 C0.99 0 1.98 0 3 0 C3 3.63 3 7.26 3 11 C3.66 11 4.32 11 5 11 C5.07347656 11.96099609 5.07347656 11.96099609 5.1484375 12.94140625 C5.81760657 20.6830001 7.80561505 27.56249364 10.31640625 34.88671875 C10.97080206 36.90973664 11.50978104 38.93174285 12 41 C12.66 41 13.32 41 14 41 C14.66 42.98 15.32 44.96 16 47 C15.01 46.34 14.02 45.68 13 45 C13 44.01 13 43.02 13 42 C12.34 42 11.68 42 11 42 C9.5393715 39.35261084 9 38.10551666 9 35 C8.34 35 7.68 35 7 35 C6.67 31.04 6.34 27.08 6 23 C5.34 23 4.68 23 4 23 C1.6520257 15.66258031 1.80644787 8.65606218 2 1 C1.34 0.67 0.68 0.34 0 0 Z " fill="#F7AFC4" transform="translate(226,144)"/>
<path d="M0 0 C0.33 0 0.66 0 1 0 C1.35483061 12.09052464 0.73363874 23.20304709 -2 35 C-2.33 35 -2.66 35 -3 35 C-2.90592956 30.97944475 -2.79972181 26.95940512 -2.68261719 22.93945312 C-2.64450798 21.57398079 -2.60962464 20.20841423 -2.578125 18.84277344 C-2.53208122 16.87152393 -2.47318951 14.90058796 -2.4140625 12.9296875 C-2.3826416 11.74616699 -2.3512207 10.56264648 -2.31884766 9.34326172 C-1.99584232 5.95640484 -1.20350799 3.17134912 0 0 Z " fill="#575656" transform="translate(465,256)"/>
<path d="M0 0 C0.33 0 0.66 0 1 0 C1.02685938 2.14576637 1.04633088 4.29162645 1.0625 6.4375 C1.07410156 7.63246094 1.08570313 8.82742187 1.09765625 10.05859375 C1 13 1 13 0 14 C-0.09851171 15.83115883 -0.12972629 17.66619933 -0.125 19.5 C-0.12757813 20.5003125 -0.13015625 21.500625 -0.1328125 22.53125 C-0.27870382 24.94399622 -0.27870382 24.94399622 1 26 C1.23678716 28.69235776 1.42198025 31.36498156 1.5625 34.0625 C1.60568359 34.82111328 1.64886719 35.57972656 1.69335938 36.36132812 C1.79973633 38.24065438 1.90039934 40.12030244 2 42 C-2.98088233 34.52867651 -2.20301786 24.23924691 -2.25 15.5625 C-2.25918457 14.60303467 -2.26836914 13.64356934 -2.27783203 12.6550293 C-2.25747031 8.02436559 -2.23990684 4.18649254 0 0 Z " fill="#999898" transform="translate(168,134)"/>
<path d="M0 0 C0.33 0 0.66 0 1 0 C1.02685938 2.14576637 1.04633088 4.29162645 1.0625 6.4375 C1.07410156 7.63246094 1.08570312 8.82742187 1.09765625 10.05859375 C1 13 1 13 0 14 C-0.27502163 15.98361468 -0.49180084 17.97536605 -0.68359375 19.96875 C-0.86825195 21.78439453 -0.86825195 21.78439453 -1.05664062 23.63671875 C-1.31050956 26.2118611 -1.56051126 28.78738764 -1.80664062 31.36328125 C-1.93103516 32.57371094 -2.05542969 33.78414062 -2.18359375 35.03125 C-2.29243896 36.15080078 -2.40128418 37.27035156 -2.51342773 38.42382812 C-2.67399658 39.27396484 -2.83456543 40.12410156 -3 41 C-3.99 41.495 -3.99 41.495 -5 42 C-4.59089886 33.30121778 -4.06786783 24.64596513 -3 16 C-2.8755249 14.96842773 -2.8755249 14.96842773 -2.74853516 13.91601562 C-2.12737921 9.12737921 -2.12737921 9.12737921 -1 8 C-0.76924918 6.65252916 -0.58846937 5.29622435 -0.4375 3.9375 C-0.293125 2.638125 -0.14875 1.33875 0 0 Z " fill="#C3C3C3" transform="translate(122,198)"/>
<path d="M0 0 C0.99 0.495 0.99 0.495 2 1 C4.07481569 7.32672671 4.30531371 13.25579269 4.25 19.875 C4.25773437 20.82375 4.26546875 21.7725 4.2734375 22.75 C4.27085937 23.65492188 4.26828125 24.55984375 4.265625 25.4921875 C4.26336914 26.31058105 4.26111328 27.12897461 4.25878906 27.97216797 C4 30 4 30 2 32 C2.01740234 30.93458984 2.01740234 30.93458984 2.03515625 29.84765625 C2.04417969 28.92855469 2.05320312 28.00945312 2.0625 27.0625 C2.07410156 26.14597656 2.08570313 25.22945312 2.09765625 24.28515625 C2.25949049 22.03406673 2.25949049 22.03406673 1 21 C0.84313751 19.44051458 0.74923361 17.87457332 0.68359375 16.30859375 C0.64169922 15.36435547 0.59980469 14.42011719 0.55664062 13.44726562 C0.51732422 12.45404297 0.47800781 11.46082031 0.4375 10.4375 C0.39431641 9.44041016 0.35113281 8.44332031 0.30664062 7.41601562 C0.20019702 4.9441585 0.09818072 2.4721969 0 0 Z " fill="#A3A2A3" transform="translate(261,156)"/>
<path d="M0 0 C1.32 0.66 2.64 1.32 4 2 C3.67 2.66 3.34 3.32 3 4 C2.34 3.67 1.68 3.34 1 3 C0.93941406 3.85464844 0.87882812 4.70929688 0.81640625 5.58984375 C0.73261719 6.69457031 0.64882812 7.79929688 0.5625 8.9375 C0.48128906 10.03964844 0.40007812 11.14179688 0.31640625 12.27734375 C0 15 0 15 -1 16 C-1.38116614 18.50140281 -1.70991051 20.98776872 -2 23.5 C-2.08685059 24.22380859 -2.17370117 24.94761719 -2.26318359 25.69335938 C-2.87144681 30.79227128 -3.45294573 35.89416016 -4 41 C-4.33 41 -4.66 41 -5 41 C-5 36.38 -5 31.76 -5 27 C-4.34 27 -3.68 27 -3 27 C-3.02320312 26.154375 -3.04640625 25.30875 -3.0703125 24.4375 C-3.17508299 17.85192604 -2.87937608 12.30143746 -1 6 C-0.6435691 4.00398694 -0.30077325 2.005155 0 0 Z " fill="#313030" transform="translate(122,191)"/>
<path d="M0 0 C0.66 0 1.32 0 2 0 C2 6.27 2 12.54 2 19 C4.31 19.99 6.62 20.98 9 22 C9 22.66 9 23.32 9 24 C10.32 24 11.64 24 13 24 C13 24.66 13 25.32 13 26 C14.32 26.33 15.64 26.66 17 27 C15.35 27 13.7 27 12 27 C12 26.34 12 25.68 12 25 C10.68 25 9.36 25 8 25 C8 24.34 8 23.68 8 23 C6.35 23 4.7 23 3 23 C3 22.34 3 21.68 3 21 C1.68 21 0.36 21 -1 21 C-0.67 14.07 -0.34 7.14 0 0 Z " fill="#848484" transform="translate(104,323)"/>
<path d="M0 0 C0.99 0.495 0.99 0.495 2 1 C2.34375 3.51953125 2.34375 3.51953125 2.5 6.8125 C2.91301005 17.70556497 2.91301005 17.70556497 6 28 C6.13415472 30.6723621 6.04318541 33.32250488 6 36 C5.67 36 5.34 36 5 36 C3.17915384 28.34030716 1.72321994 20.75351984 0.8125 12.9375 C0.72887207 12.22408447 0.64524414 11.51066895 0.55908203 10.77563477 C0.16159323 7.16788967 -0.09197742 3.62957048 0 0 Z " fill="#818080" transform="translate(35,266)"/>
<path d="M0 0 C0.66 0 1.32 0 2 0 C4.29612756 9.41002278 4.29612756 9.41002278 4 14 C4.66 14 5.32 14 6 14 C6 16.64 6 19.28 6 22 C6.66 22 7.32 22 8 22 C8 24.97 8 27.94 8 31 C7.67 31 7.34 31 7 31 C5.66416101 26.15758367 4.74671881 22.06562383 5 17 C4.34 17 3.68 17 3 17 C2.49453964 14.91798472 1.99583165 12.83432933 1.5 10.75 C1.2215625 9.58984375 0.943125 8.4296875 0.65625 7.234375 C0 4 0 4 0 0 Z " fill="#636263" transform="translate(393,200)"/>
<path d="M0 0 C1.27101882 3.77511559 0.92892657 7.19038301 0.625 11.125 C0.53476563 12.36507813 0.44453125 13.60515625 0.3515625 14.8828125 C0 18 0 18 -1 20 C-1.22467831 21.53668865 -1.40796805 23.07968054 -1.5625 24.625 C-1.64628906 25.44226563 -1.73007813 26.25953125 -1.81640625 27.1015625 C-1.87699219 27.72804688 -1.93757813 28.35453125 -2 29 C-2.33 29 -2.66 29 -3 29 C-3.02684679 26.35409986 -3.04676357 23.70846904 -3.0625 21.0625 C-3.07087891 20.30775391 -3.07925781 19.55300781 -3.08789062 18.77539062 C-3.09652441 16.85005687 -3.05224333 14.92464419 -3 13 C-2.67 12.67 -2.34 12.34 -2 12 C-1.79160985 10.35892758 -1.63248275 8.71143707 -1.5 7.0625 C-1.10977702 2.21955403 -1.10977702 2.21955403 0 0 Z " fill="#858485" transform="translate(109,294)"/>
<path d="M0 0 C2.79086828 2.79086828 2.79392694 5.26462231 3.5 9.125 C4.2861236 13.35368148 5.08612982 17.54317848 6.25 21.6875 C6.97617272 24.89476283 6.91506921 25.99988024 6 29 C3.8607789 23.2954104 2.43254674 17.66108261 1.3125 11.6875 C1.11563599 10.64722656 1.11563599 10.64722656 0.91479492 9.5859375 C0.32190091 6.30931333 0 3.34471081 0 0 Z " fill="#B0AFB0" transform="translate(377,136)"/>
<path d="M0 0 C1.32 0.33 2.64 0.66 4 1 C4 1.99 4 2.98 4 4 C3.67 3.67 3.34 3.34 3 3 C2.67 3.66 2.34 4.32 2 5 C1.01 5 0.02 5 -1 5 C-1.103125 6.0725 -1.20625 7.145 -1.3125 8.25 C-1.97400493 11.85820872 -2.57483421 13.36395023 -5 16 C-4.67 13.03 -4.34 10.06 -4 7 C-3.34 7 -2.68 7 -2 7 C-2 5.35 -2 3.7 -2 2 C-1.34 2 -0.68 2 0 2 C0 1.34 0 0.68 0 0 Z " fill="#9E3253" transform="translate(231,296)"/>
<path d="M0 0 C2.9389507 0.0868803 5.87481289 0.19373767 8.8125 0.3125 C9.64587891 0.33505859 10.47925781 0.35761719 11.33789062 0.38085938 C12.54155273 0.4340332 12.54155273 0.4340332 13.76953125 0.48828125 C14.87711792 0.52755737 14.87711792 0.52755737 16.00708008 0.56762695 C18.47166391 1.10232963 19.40052324 2.09965347 21 4 C13.65081658 4.43230491 7.09784913 2.81774185 0 1 C0 0.67 0 0.34 0 0 Z " fill="#F27DA0" transform="translate(301,291)"/>
<path d="M0 0 C2.82639195 4.23958792 3.98665541 8.29185499 4.5625 13.3125 C4.59014592 16.79643666 4.59014592 16.79643666 6 18 C6.07179964 19.51928038 6.08392007 21.04167482 6.0625 22.5625 C6.05347656 23.38878906 6.04445313 24.21507812 6.03515625 25.06640625 C6.02355469 25.70449219 6.01195312 26.34257812 6 27 C5.67 27 5.34 27 5 27 C3.61470179 21.54538831 2.7603057 16.63281599 3 11 C2.34 11 1.68 11 1 11 C0.67 7.37 0.34 3.74 0 0 Z " fill="#444243" transform="translate(456,185)"/>
<path d="M0 0 C3.06324619 0.11423293 6.12510914 0.24097852 9.1875 0.375 C10.05181641 0.4059375 10.91613281 0.436875 11.80664062 0.46875 C16.25895022 0.67345389 19.94992587 0.93722933 24 3 C24 3.33 24 3.66 24 4 C18.75462081 4.19074106 14.27966675 3.75823874 9.1875 2.51171875 C6.14283728 1.79948515 3.10018737 1.3957686 0 1 C0 0.67 0 0.34 0 0 Z " fill="#919091" transform="translate(268,33)"/>
<path d="M0 0 C0.66 0 1.32 0 2 0 C2.33 5.28 2.66 10.56 3 16 C2.34 16 1.68 16 1 16 C1 11.71 1 7.42 1 3 C0.34 3 -0.32 3 -1 3 C-1.12375 3.804375 -1.2475 4.60875 -1.375 5.4375 C-1.58125 6.283125 -1.7875 7.12875 -2 8 C-2.99 8.495 -2.99 8.495 -4 9 C-3.125 4.25 -3.125 4.25 -2 2 C-1.34 2 -0.68 2 0 2 C0 1.34 0 0.68 0 0 Z " fill="#F2779C" transform="translate(226,145)"/>
<path d="M0 0 C0.66 0 1.32 0 2 0 C1.67 1.98 1.34 3.96 1 6 C0.34 6 -0.32 6 -1 6 C-0.938125 7.0828125 -0.938125 7.0828125 -0.875 8.1875 C-1.01186341 11.26692668 -1.56408594 13.27932073 -3 16 C-3.99 16.33 -4.98 16.66 -6 17 C-4.33846988 11.14340094 -2.52958084 5.5409866 0 0 Z " fill="#444142" transform="translate(213,341)"/>
<path d="M0 0 C-7.96798145 3.89922497 -16.29462571 3.71311835 -25 4 C-25 3.67 -25 3.34 -25 3 C-24.09378906 2.87882812 -23.18757813 2.75765625 -22.25390625 2.6328125 C-13.95227791 1.496676 -13.95227791 1.496676 -5.75 -0.1875 C-2 -1 -2 -1 0 0 Z " fill="#9A9999" transform="translate(305,459)"/>
<path d="M0 0 C0.33 0 0.66 0 1 0 C1.05447822 2.52113092 1.09389852 5.0410585 1.125 7.5625 C1.14175781 8.26697266 1.15851563 8.97144531 1.17578125 9.69726562 C1.22022044 14.51891822 0.52768004 18.42297438 -1 23 C-1.33 23 -1.66 23 -2 23 C-2.31732638 15.22550376 -1.11855299 7.67007765 0 0 Z " fill="#ABAAAB" transform="translate(112,268)"/>
<path d="M0 0 C0.33 0 0.66 0 1 0 C2.20443195 7.05453001 3.28100502 13.83437211 3 21 C-0.0691251 16.39631234 -0.12326774 13.28800292 -0.0625 7.875 C-0.05798828 7.12089844 -0.05347656 6.36679688 -0.04882812 5.58984375 C-0.03703499 3.72652873 -0.01909942 1.86325445 0 0 Z " fill="#585757" transform="translate(463,213)"/>
<path d="M0 0 C1.46726798 3.81489674 0.43336419 6.29011622 -1 10 C-1.66 10 -2.32 10 -3 10 C-2.97679687 10.61488281 -2.95359375 11.22976562 -2.9296875 11.86328125 C-2.91164062 12.67152344 -2.89359375 13.47976562 -2.875 14.3125 C-2.85179687 15.11300781 -2.82859375 15.91351563 -2.8046875 16.73828125 C-3 19 -3 19 -5 22 C-4.21371611 4.21371611 -4.21371611 4.21371611 0 0 Z " fill="#868585" transform="translate(44,185)"/>
<path d="M0 0 C0 0.33 0 0.66 0 1 C-7.42640842 2.60881575 -14.40501039 3.26442904 -22 3 C-22 2.67 -22 2.34 -22 2 C-14.58569409 0.16282685 -7.62314474 -0.23576736 0 0 Z " fill="#333132" transform="translate(280,462)"/>
<path d="M0 0 C5.61 0.33 11.22 0.66 17 1 C17 1.66 17 2.32 17 3 C17.99 3.33 18.98 3.66 20 4 C17.36 4 14.72 4 12 4 C12 3.34 12 2.68 12 2 C11.38511719 2.02320313 10.77023438 2.04640625 10.13671875 2.0703125 C8.92435547 2.09738281 8.92435547 2.09738281 7.6875 2.125 C6.88699219 2.14820313 6.08648437 2.17140625 5.26171875 2.1953125 C3 2 3 2 0 0 Z " fill="#494849" transform="translate(202,459)"/>
<path d="M0 0 C0.33 1.32 0.66 2.64 1 4 C0.34 4 -0.32 4 -1 4 C-0.9484375 4.71542969 -0.896875 5.43085938 -0.84375 6.16796875 C-1.02602747 9.47174781 -1.95027242 11.40676078 -3.5 14.3125 C-3.9640625 15.19550781 -4.428125 16.07851563 -4.90625 16.98828125 C-5.44765625 17.98408203 -5.44765625 17.98408203 -6 19 C-7.33332095 16.3333581 -6.67102033 14.83319697 -6 12 C-5.34 12 -4.68 12 -4 12 C-4 10.68 -4 9.36 -4 8 C-3.34 8 -2.68 8 -2 8 C-2.061875 6.8553125 -2.061875 6.8553125 -2.125 5.6875 C-2 3 -2 3 0 0 Z " fill="#75233C" transform="translate(222,319)"/>
<path d="M0 0 C-1.44781793 3.44428265 -3.27694609 5.36130962 -6.125 7.75 C-7.21167969 8.67039062 -7.21167969 8.67039062 -8.3203125 9.609375 C-8.87460938 10.06828125 -9.42890625 10.5271875 -10 11 C-10.66 10.67 -11.32 10.34 -12 10 C-10.38113585 8.32737283 -8.7547271 6.66204463 -7.125 5 C-6.22007813 4.071875 -5.31515625 3.14375 -4.3828125 2.1875 C-2 0 -2 0 0 0 Z " fill="#464445" transform="translate(107,88)"/>
<path d="M0 0 C0.96661363 3.12180401 0.98988909 5.52083795 0.5625 8.75 C0.46066406 9.54921875 0.35882813 10.3484375 0.25390625 11.171875 C0.12822266 12.07679688 0.12822266 12.07679688 0 13 C-0.66 13 -1.32 13 -2 13 C-2 14.65 -2 16.3 -2 18 C-2.66 18.33 -3.32 18.66 -4 19 C-3.46048934 12.31006781 -2.11293829 6.36539272 0 0 Z " fill="#9A999A" transform="translate(461,292)"/>
<path d="M0 0 C3.35433109 0.94933899 6.69246505 1.89748835 10 3 C10 3.66 10 4.32 10 5 C11.32 5 12.64 5 14 5 C14 5.66 14 6.32 14 7 C15.32 7.33 16.64 7.66 18 8 C16.35 8 14.7 8 13 8 C13 7.34 13 6.68 13 6 C11.68 6 10.36 6 9 6 C9 5.34 9 4.68 9 4 C7.35 4 5.7 4 4 4 C4 3.34 4 2.68 4 2 C2.68 2 1.36 2 0 2 C0 1.34 0 0.68 0 0 Z " fill="#595858" transform="translate(103,342)"/>
<path d="M0 0 C2.92965912 2.92965912 3.94133569 5.680053 4.125 9.8125 C4.08375 10.534375 4.0425 11.25625 4 12 C4.66 12 5.32 12 6 12 C6.33 13.32 6.66 14.64 7 16 C6.34 16 5.68 16 5 16 C5 15.01 5 14.02 5 13 C4.34 13 3.68 13 3 13 C3 11.68 3 10.36 3 9 C2.34 9 1.68 9 1 9 C0.67 6.03 0.34 3.06 0 0 Z " fill="#F27DA0" transform="translate(371,234)"/>
<path d="M0 0 C2.5 2.3125 2.5 2.3125 5 5 C5 5.99 5 6.98 5 8 C5.99 8.33 6.98 8.66 8 9 C7.67 9.66 7.34 10.32 7 11 C4.53199953 9.84826645 2.95216435 8.95216435 1 7 C0.59952556 4.67724823 0.2602896 2.34260643 0 0 Z " fill="#BF486B" transform="translate(153,230)"/>
<path d="M0 0 C3.84160316 5.76240474 4.23538321 11.29157865 4 18 C3.67 18 3.34 18 3 18 C2.49490792 15.75113762 1.99610821 13.50086131 1.5 11.25 C1.2215625 9.99703125 0.943125 8.7440625 0.65625 7.453125 C0 4 0 4 0 0 Z " fill="#9D9C9D" transform="translate(37,284)"/>
<path d="M0 0 C1.32 0.66 2.64 1.32 4 2 C3.67 2.66 3.34 3.32 3 4 C2.34 3.67 1.68 3.34 1 3 C0.67 6.96 0.34 10.92 0 15 C-0.33 15 -0.66 15 -1 15 C-1.10251672 9.87416389 -1.03590199 5.05002222 0 0 Z " fill="#747373" transform="translate(122,191)"/>
<path d="M0 0 C0.33 1.32 0.66 2.64 1 4 C2.32 3.34 3.64 2.68 5 2 C4.67 3.32 4.34 4.64 4 6 C2.35 6.33 0.7 6.66 -1 7 C-1.04254356 5.00045254 -1.04080783 2.99958364 -1 1 C-0.67 0.67 -0.34 0.34 0 0 Z " fill="#F9C4D4" transform="translate(148,296)"/>
<path d="M0 0 C-2.78463018 2.78463018 -5.14524794 2.54265654 -9 3 C-10.66934283 3.31966139 -12.3373217 3.64731066 -14 4 C-9.89239426 0.52433361 -5.34448487 -2.0555711 0 0 Z " fill="#747374" transform="translate(187,43)"/>
<path d="M0 0 C9.59453303 0.59453303 9.59453303 0.59453303 13 4 C7.76824163 4.38281159 4.62197306 3.21854707 0 1 C0 0.67 0 0.34 0 0 Z " fill="#727172" transform="translate(303,39)"/>
<path d="M0 0 C1.33332095 2.6666419 0.67102033 4.16680303 0 7 C-0.66 7 -1.32 7 -2 7 C-2 8.32 -2 9.64 -2 11 C-2.66 11 -3.32 11 -4 11 C-2.95902388 7.13351728 -1.96301592 3.50538557 0 0 Z " fill="#514F50" transform="translate(57,152)"/>
<path d="M0 0 C0.66 0 1.32 0 2 0 C2 1.32 2 2.64 2 4 C2.66 4 3.32 4 4 4 C4.33 6.31 4.66 8.62 5 11 C3 10 3 10 2.1484375 7.96875 C1.89320312 7.1540625 1.63796875 6.339375 1.375 5.5 C0.98441406 4.27796875 0.98441406 4.27796875 0.5859375 3.03125 C0 1 0 1 0 0 Z " fill="#5C5B5B" transform="translate(53,335)"/>
<path d="M0 0 C1.98 0.495 1.98 0.495 4 1 C4 1.99 4 2.98 4 4 C3.67 3.67 3.34 3.34 3 3 C2.67 3.66 2.34 4.32 2 5 C1.01 5 0.02 5 -1 5 C-0.67 3.35 -0.34 1.7 0 0 Z " fill="#5A2E3B" transform="translate(231,296)"/>
<path d="M0 0 C3.86648272 1.04097612 7.49461443 2.03698408 11 4 C8.3333581 5.33332095 6.83319697 4.67102033 4 4 C4 3.34 4 2.68 4 2 C2.68 1.67 1.36 1.34 0 1 C0 0.67 0 0.34 0 0 Z " fill="#5A595A" transform="translate(332,49)"/>
</svg>
