<?xml version="1.0" encoding="UTF-8"?>
<svg id="Calque_1" data-name="Calque 1" xmlns="http://www.w3.org/2000/svg" viewBox="0 0 119.28 119.28">
  <defs>
    <style>
      .cls-1 {
        fill: #60575a;
      }

      .cls-2 {
        fill: #d697a9;
      }

      .cls-3 {
        fill: #989797;
      }

      .cls-4 {
        fill: #919090;
      }

      .cls-5 {
        fill: #eb517f;
      }

      .cls-6 {
        fill: #050304;
      }

      .cls-7 {
        fill: #eb507e;
      }

      .cls-8 {
        fill: #fdfdfd;
      }

      .cls-9 {
        fill: #eb4d7c;
      }

      .cls-10 {
        fill: #fcfbfb;
      }

      .cls-11 {
        fill: #ea527f;
      }
    </style>
  </defs>
  <path class="cls-8" d="M119.26,59.76c0,19.51,0,39.03,.02,58.54,0,.82-.16,.98-.98,.98-39.1-.03-78.21-.03-117.31,0-.82,0-.98-.16-.98-.98C.03,79.19,.03,40.09,0,.98,0,.16,.16,0,.98,0,40.09,.03,79.19,.03,118.3,0c.82,0,.98,.16,.98,.98-.03,19.59-.02,39.19-.02,58.78Zm-7.25,3.79c-.02-3.39,.13-6.77-.33-10.17-.81-5.99-2.39-11.73-5.21-17.07-8.21-15.57-21.05-24.88-38.4-27.88-7.41-1.28-14.75-.54-21.95,1.44-6.45,1.77-12.32,4.79-17.56,8.96-10.35,8.24-16.76,18.85-19.14,31.9-1.18,6.5-1.08,12.98,.24,19.42,1.74,8.47,5.37,16.08,10.93,22.73,6.65,7.96,14.93,13.45,24.85,16.49,6.07,1.86,12.27,2.47,18.58,2.16,.92,0,1.9,.37,2.71-.38,.15-.01,.3-.02,.45-.03,.8,.24,1.56,.2,2.22-.37,.22-.03,.44-.06,.66-.09,.66,.24,1.25,.14,1.74-.39,.22-.03,.44-.07,.66-.1,.54,.29,.93,.04,1.26-.37,.14-.03,.28-.05,.42-.08,.55,.27,.92-.02,1.26-.39,.14-.03,.28-.06,.42-.08,.5,.29,.76-.05,1.02-.38,.14-.03,.28-.06,.41-.1,.5,.29,.75-.08,1.02-.39l.41-.12c.43,.25,.57-.14,.79-.35,.14-.04,.28-.08,.41-.12,.61,0,1.12-.17,1.47-.7,.29-.12,.58-.24,.86-.36,.28,.1,.46-.03,.61-.25,.12-.07,.24-.14,.36-.21,.28,.08,.46-.05,.6-.27,.12-.08,.23-.15,.35-.23,.66,0,1.15-.31,1.55-.81,.11-.08,.23-.16,.34-.23,.63,.08,1-.31,1.32-.76,1.01-.68,2.02-1.35,3.03-2.03,.44,.05,.66-.23,.82-.58,.93-.76,1.87-1.51,2.8-2.27,.44-.01,.66-.27,.77-.66,1.36-1.36,2.72-2.73,4.08-4.09,.39-.11,.66-.33,.66-.78,.75-.93,1.51-1.87,2.26-2.8,.55-.38,.98-.84,1.07-1.54,.2-.29,.4-.58,.6-.87,.34-.05,.43-.27,.36-.58,.02-.06,.06-.11,.11-.15,.34-.05,.43-.26,.37-.57,.03-.06,.06-.11,.11-.15,.55-.36,.81-.88,.88-1.51,.12-.21,.23-.42,.35-.63,.66-.51,.95-1.22,1.07-2.02,.07-.12,.14-.23,.2-.35,1.07-1.73,1.91-3.57,2.31-5.58,.03-.14,.07-.28,.1-.42,.3-.28,.62-.54,.38-1.02,.03-.14,.06-.28,.09-.42,.42-.37,.66-.79,.42-1.36,.18-.75,.36-1.5,.54-2.24,.55-.49,.66-1.07,.39-1.73,.03-.22,.06-.44,.08-.67,.58-.66,.65-1.41,.39-2.21,.01-.15,.02-.3,.04-.45,.74-.82,.37-1.8,.37-2.72Z"/>
  <path class="cls-6" d="M64.04,111.53c-6.31,.31-12.51-.3-18.58-2.16-9.93-3.04-18.2-8.54-24.85-16.49-5.56-6.65-9.2-14.26-10.93-22.73-1.32-6.44-1.43-12.92-.24-19.42,2.38-13.04,8.78-23.66,19.14-31.9,5.24-4.17,11.11-7.19,17.56-8.96,7.2-1.98,14.55-2.71,21.95-1.44,17.34,2.99,30.18,12.31,38.4,27.88,2.82,5.34,4.39,11.08,5.21,17.07,.46,3.4,.31,6.78,.33,10.17-.58,.84-.41,1.79-.37,2.72-.01,.15-.02,.3-.04,.45-.22,.72-.54,1.43-.39,2.21-.03,.22-.06,.44-.08,.67-.23,.56-.55,1.09-.39,1.73-.18,.75-.36,1.5-.54,2.24-.26,.42-.58,.81-.42,1.36-.03,.14-.06,.28-.09,.42-.35,.26-.53,.58-.38,1.02-.03,.14-.07,.28-.1,.42-.91,1.8-1.69,3.66-2.31,5.58-.07,.12-.14,.23-.2,.35-.57,.56-.87,1.27-1.07,2.02-.12,.21-.23,.42-.35,.63-.48,.4-.75,.91-.88,1.51-.05,.04-.08,.09-.11,.15-.26,.1-.38,.3-.37,.57-.05,.04-.08,.09-.11,.15-.28,.1-.37,.31-.36,.58-.2,.29-.4,.58-.6,.87-.53,.4-.91,.89-1.07,1.54-.75,.93-1.51,1.87-2.26,2.8-.38,.12-.62,.36-.66,.78-1.36,1.36-2.72,2.73-4.08,4.09-.41,.05-.65,.28-.77,.66-.93,.76-1.87,1.51-2.8,2.27-.45-.05-.64,.26-.82,.58-1.01,.68-2.02,1.35-3.03,2.03-.55,.06-.96,.37-1.32,.76-.11,.08-.23,.16-.34,.23-.63,.05-1.11,.39-1.55,.81-.12,.08-.23,.15-.35,.23-.28-.09-.51-.05-.6,.27-.12,.07-.24,.14-.36,.21-.28-.1-.51-.07-.61,.25-.29,.12-.58,.24-.86,.36-.53,.16-1.13,.16-1.47,.7-.14,.04-.28,.08-.41,.12-.38-.14-.63,.01-.79,.35l-.41,.12c-.45-.14-.76,.06-1.02,.39-.14,.03-.28,.06-.41,.1-.44-.15-.75,.08-1.02,.38-.14,.03-.28,.06-.42,.08-.52-.17-.89,.1-1.26,.39-.14,.03-.28,.05-.42,.08-.5-.15-.9,.06-1.26,.37-.22,.03-.44,.07-.66,.1-.65-.16-1.18,.16-1.74,.39-.22,.03-.44,.06-.66,.09-.79-.17-1.5,.16-2.22,.37-.15,.01-.3,.02-.45,.03-.93-.04-1.87-.21-2.71,.38Zm-.49-46.93c.03-.35-.14-.49-.48-.48h0c.03-.35-.12-.51-.46-.5h0c-.05-.56-.38-.86-.89-1.01-.36-.45-.72-.89-1.08-1.34,.09-.47-.2-.69-.58-.83-.53-.76-1.05-1.52-1.58-2.29,0-.46-.07-.89-.59-1.07-.12-.21-.24-.41-.36-.62,.01-.48-.1-.88-.61-1.06-.12-.21-.23-.42-.35-.63,.05-.48-.07-.87-.55-1.08-.05-.13-.1-.25-.15-.38,0-.54-.34-.95-.5-1.43-.35-.99-1.24-1.78-1.11-2.96,.27,.23,.53,.48,.81,.69,1.68,1.27,4.83,1.1,6.21-.33,1.91-1.65,2.41-3.96,2.47-6.25,.14-4.84-1.59-9.16-4.54-12.94-1.41-1.8-3.26-3.25-5.58-3.65-1.99-.34-4.02-.49-6.07-.12-1.72,.31-3.3,1.1-4.39,2.25-2.7,2.87-3.4,6.42-2.84,10.32,.62,4.32,2.34,8.26,3.8,12.3,.6,1.66,1.65,3.2,1.56,5.08-1.37,1.07-2.25,2.57-3.34,3.87-.61,.74-.96,.72-1.54-.04-1.13-1.48-2.18-3.04-3.51-4.36-.39-.56-.75-1.13-1.16-1.66-1.81-2.38-3.64-4.75-5.47-7.12-.2-.27-.29-.78-.74-.65-.4,.12-.3,.6-.34,.94-1.48,11.28-2.94,22.57-4.43,33.85-.1,.73,.07,1.06,.77,1.34,6.25,2.59,12.48,5.22,18.72,7.83,.91,.38,1.96,1.2,2.72,1,.94-.25,1-1.69,1.38-2.63,1.04-2.58,2.3-5.08,3.05-7.77,.09-.08,.22-.13,.26-.23,1.32-3.25,2.64-6.5,3.96-9.76,.31,.06,.43,.34,.58,.56,4.25,5.95,8.49,11.9,12.75,17.85,.26,.37,.41,.89,1.01,.9,1.18,.15,2.36,.16,3.54-.03,2.24-.04,4.49-.08,6.73-.12,1.13,.31,2.27,.07,3.41,.07,.36,0,.72-.16,.52-.67,.04-8.79,.08-17.58,.13-26.37,.1-.14,.2-.28,.3-.42,2.43,.3,4.87,.23,7.32,.11,1.59,.25,3.19,.03,4.78,.16,1.02,.08,1.23-.25,.98-1.22-1.22-4.71-2.39-9.43-3.57-14.14-1.68-6.73-3.37-13.47-4.99-20.21-.21-.86-.56-1.03-1.36-1.02-5.4,.03-10.79,.04-16.19,0-.96,0-1.19,.25-1.18,1.2,.04,9.59,.02,19.19,.03,28.78,0,1.28,.04,2.55,.07,3.83-.22,2.84,.1,5.72-.53,8.54-1.13-.03-1.85-1.13-2.99-1.15-.82-.45-1.58-.98-2.26-1.61-.15-.51-.46-.84-1.02-.89h0c.02-.35-.16-.49-.49-.46h0Z"/>
  <path class="cls-4" d="M106.91,82.37c.62-1.92,1.4-3.78,2.31-5.58-.4,2.01-1.23,3.85-2.31,5.58Z"/>
  <path class="cls-4" d="M64.04,111.53c.84-.59,1.79-.42,2.71-.38-.82,.74-1.79,.37-2.71,.38Z"/>
  <path class="cls-3" d="M111.64,66.27c-.04-.93-.22-1.88,.37-2.72,0,.92,.37,1.9-.37,2.72Z"/>
  <path class="cls-3" d="M111.22,68.93c-.16-.79,.16-1.49,.39-2.21,.26,.81,.19,1.55-.39,2.21Z"/>
  <path class="cls-4" d="M67.2,111.12c.73-.21,1.43-.54,2.22-.37-.67,.57-1.42,.61-2.22,.37Z"/>
  <path class="cls-4" d="M105.64,84.75c.2-.76,.5-1.46,1.07-2.02-.12,.8-.4,1.51-1.07,2.02Z"/>
  <path class="cls-3" d="M110.75,71.33c-.16-.64,.16-1.18,.39-1.73,.27,.67,.16,1.25-.39,1.73Z"/>
  <path class="cls-4" d="M70.08,110.66c.56-.23,1.1-.55,1.74-.39-.49,.53-1.08,.63-1.74,.39Z"/>
  <path class="cls-4" d="M101.8,90.75c.17-.64,.55-1.14,1.07-1.54-.09,.7-.52,1.16-1.07,1.54Z"/>
  <path class="cls-4" d="M104.41,86.89c.12-.6,.4-1.12,.88-1.51-.06,.64-.33,1.15-.88,1.51Z"/>
  <path class="cls-4" d="M84.16,105.74c.44-.42,.92-.76,1.55-.81-.4,.5-.89,.81-1.55,.81Z"/>
  <path class="cls-4" d="M79.91,107.77c.34-.54,.94-.55,1.47-.7-.35,.53-.86,.71-1.47,.7Z"/>
  <path class="cls-4" d="M109.79,74.94c-.16-.55,.16-.94,.42-1.36,.24,.57,0,.99-.42,1.36Z"/>
  <path class="cls-4" d="M86.05,104.7c.36-.4,.77-.7,1.32-.76-.33,.45-.69,.84-1.32,.76Z"/>
  <path class="cls-4" d="M74.16,109.72c.37-.3,.75-.57,1.26-.4-.34,.38-.72,.66-1.26,.4Z"/>
  <path class="cls-4" d="M72.48,110.17c.37-.31,.76-.52,1.26-.37-.34,.41-.72,.65-1.26,.37Z"/>
  <path class="cls-4" d="M109.32,76.38c-.15-.44,.04-.76,.38-1.02,.24,.48-.08,.75-.38,1.02Z"/>
  <path class="cls-4" d="M77.28,108.76c.26-.33,.58-.53,1.02-.39-.27,.31-.52,.68-1.02,.39Z"/>
  <path class="cls-4" d="M75.84,109.24c.28-.3,.58-.53,1.02-.38-.26,.33-.53,.67-1.02,.38Z"/>
  <path class="cls-4" d="M98.89,94.32c.04-.41,.28-.65,.66-.78,0,.45-.26,.67-.66,.78Z"/>
  <path class="cls-4" d="M90.41,101.92c.19-.32,.38-.63,.82-.58-.17,.34-.38,.62-.82,.58Z"/>
  <path class="cls-4" d="M94.03,99.07c.12-.38,.36-.62,.77-.66-.11,.39-.33,.65-.77,.66Z"/>
  <path class="cls-4" d="M78.71,108.25c.16-.34,.41-.49,.79-.35-.22,.21-.36,.61-.79,.35Z"/>
  <path class="cls-4" d="M82.25,106.71c.1-.33,.33-.35,.61-.25-.15,.22-.33,.35-.61,.25Z"/>
  <path class="cls-4" d="M103.94,87.61c0-.27,.11-.47,.37-.57,.06,.31-.03,.52-.37,.57Z"/>
  <path class="cls-4" d="M103.47,88.34c0-.27,.08-.48,.36-.58,.07,.31-.01,.52-.36,.58Z"/>
  <path class="cls-4" d="M83.22,106.24c.1-.32,.32-.36,.6-.27-.14,.22-.32,.35-.6,.27Z"/>
  <path class="cls-10" d="M51.79,80.92c-.74,2.7-2.01,5.19-3.05,7.77-.38,.94-.44,2.39-1.38,2.63-.77,.2-1.81-.62-2.72-1-6.24-2.61-12.47-5.24-18.72-7.83-.7-.29-.86-.61-.77-1.34,1.49-11.28,2.95-22.57,4.43-33.85,.04-.33-.06-.82,.34-.94,.45-.13,.54,.38,.74,.65,1.83,2.37,3.65,4.74,5.47,7.12,.41,.54,.78,1.11,1.17,1.67-.26,.38-.26,.83-.29,1.26-.19,3.38-.33,6.76-.59,10.14-.11,1.38,0,2.8-.52,4.13-.11,.28-.24,.67,.15,.83,.33,.14,.45-.25,.62-.44,1.94-2.22,3.87-4.45,5.8-6.68,1.41-1.62,2.83-3.24,4.22-4.88,.32-.37,.92-.81,.64-1.29-.5-.88-.77-1.93-1.66-2.56,.09-1.88-.96-3.42-1.56-5.08-1.46-4.04-3.18-7.98-3.8-12.3-.56-3.9,.14-7.45,2.84-10.32,1.09-1.16,2.66-1.94,4.39-2.25,2.05-.37,4.08-.22,6.07,.12,2.32,.39,4.17,1.85,5.58,3.65,2.95,3.78,4.68,8.09,4.54,12.94-.07,2.29-.57,4.6-2.47,6.25-2.97-3.12-5.28-6.6-5.97-10.95-.18-1.15-.26-2.32-.41-3.76-1.27,1.57-1.82,3.13-2.14,4.76-.59,2.99-.44,5.95,.65,8.83,.57,1.83,1.37,3.56,2.46,5.14,.05,.13,.1,.25,.15,.38,.03,.44,.23,.79,.55,1.08,.12,.21,.23,.42,.35,.63,.04,.45,.25,.79,.61,1.06,.12,.21,.24,.41,.36,.62,.1,.41,.2,.82,.59,1.07,.53,.76,1.05,1.52,1.58,2.29-.02,.42,.25,.65,.58,.83,.36,.45,.72,.89,1.08,1.34,.13,.48,.43,.82,.89,1.01h0c.02,.29,.19,.44,.46,.49,0,0,0,0,0,0,.02,.29,.2,.43,.48,.48,0,0,0,0,0,0,.04,.29,.22,.43,.49,.46,0,0,0,0,0,0,.2,.45,.53,.76,1.02,.89,.69,.63,1.45,1.16,2.26,1.61,.54,.63,1.37,.78,2.01,1.24-.01,.5,.38,.5,.72,.61,2.25,.72,4.59,1.02,6.91,1.33,1.19,.16,2.41,.15,3.65-.02-.17-.54-.54-.68-.77-.94-.98-1.11-2.34-1.78-3.31-2.9-1.92-2.22-3.94-4.36-5.7-6.72-.02-1.28-.06-2.55-.07-3.83,0-9.59,.01-19.19-.03-28.78,0-.95,.23-1.21,1.18-1.2,5.4,.05,10.79,.04,16.19,0,.8,0,1.16,.16,1.36,1.02,1.62,6.75,3.31,13.48,4.99,20.21,1.18,4.72,2.35,9.44,3.57,14.14,.25,.97,.04,1.3-.98,1.22-1.59-.13-3.19,.09-4.78-.16-.15-.37-.28-.74-.46-1.09-2.28-4.45-4-9.1-5.33-13.91,.15-.42-.04-.73-.35-.99-.07-.41-.14-.81-.21-1.22,.27-.52-.07-.89-.32-1.28-.05-.29-.09-.59-.14-.88,.27-.29,.05-.42-.18-.54-.09-.52-.17-1.05-.26-1.57,.17-.29,.03-.46-.22-.59-.04-.3-.08-.6-.12-.9,0-.44,.13-.9-.24-1.35-.3,.49-.24,.92-.2,1.35,.04,2.39,.08,4.78,.12,7.16-.29,2-.04,4-.09,6,0,.33-.12,.72,.26,.97,.04,2.88,.08,5.77,.12,8.65-.16,.16-.24,.33,.01,.48-.04,8.79-.08,17.58-.13,26.37-.84,.5-1.77,.2-2.65,.32-.43,.05-.96-.26-1.28,.29-2.24,.04-4.49,.08-6.73,.12-1.18-.32-2.36-.28-3.54,.03-.6,0-.75-.53-1.01-.9-4.25-5.95-8.5-11.9-12.75-17.85-.16-.22-.27-.49-.58-.56-1.28-2.75-2.99-5.25-4.46-7.89-.14-.25-.19-.74-.6-.61-.38,.12-.21,.55-.2,.85,.22,4.98,.44,9.97,.67,14.95,.04,.9,.06,1.82,.37,2.69Z"/>
  <path class="cls-7" d="M45.68,56.32c.89,.63,1.16,1.68,1.66,2.56,.27,.48-.33,.92-.64,1.29-1.39,1.64-2.81,3.25-4.22,4.88-1.93,2.23-3.86,4.45-5.8,6.68-.17,.2-.29,.58-.62,.44-.4-.16-.26-.55-.15-.83,.52-1.33,.41-2.75,.52-4.13,.26-3.37,.4-6.76,.59-10.14,.02-.44,.03-.88,.29-1.26,1.34,1.32,2.38,2.88,3.51,4.36,.58,.75,.92,.77,1.54,.04,1.09-1.31,1.97-2.81,3.34-3.87Z"/>
  <path class="cls-9" d="M84.37,47.01c-.04-2.39-.08-4.78-.12-7.16,.15,0,.3,0,.44,0,.04,.3,.08,.6,.12,.9-.14,.28-.04,.47,.22,.59,.09,.52,.17,1.05,.25,1.57-.1,.23-.07,.42,.18,.54,.05,.29,.09,.59,.13,.88-.25,.52-.1,.93,.32,1.28,.07,.41,.14,.81,.21,1.22-.32,.48,.04,.73,.35,.99,1.33,4.81,3.06,9.47,5.33,13.91,.18,.35,.31,.73,.46,1.09-2.44,.11-4.88,.18-7.31-.11-.1-.02-.21-.04-.31-.07-.04-2.88-.08-5.77-.12-8.65,.35-2.24,.13-4.49,.08-6.73,0-.08-.16-.16-.25-.24Z"/>
  <path class="cls-5" d="M53.41,48.2c-1.09-2.88-1.24-5.83-.65-8.83,.32-1.63,.87-3.19,2.14-4.76,.16,1.44,.23,2.61,.41,3.76,.69,4.35,3,7.83,5.97,10.95-1.37,1.43-4.53,1.6-6.21,.33-.28-.21-.54-.46-.81-.69-.02-.55-.53-.54-.85-.76Z"/>
  <path class="cls-11" d="M51.79,80.92c-.31-.87-.33-1.78-.37-2.69-.23-4.98-.45-9.97-.67-14.95-.01-.3-.18-.73,.2-.85,.41-.13,.46,.36,.6,.61,1.47,2.64,3.19,5.14,4.46,7.89-1.32,3.25-2.63,6.51-3.96,9.76-.04,.1-.17,.15-.26,.23Z"/>
  <path class="cls-5" d="M70.85,60.18c1.77,2.36,3.78,4.5,5.7,6.72,.98,1.13,2.34,1.79,3.31,2.9,.23,.26,.59,.4,.77,.94-1.24,.16-2.46,.18-3.65,.02-2.33-.32-4.66-.61-6.91-1.33-.35-.11-.73-.11-.72-.61,.32-.05,.71,.61,.97-.1,.63-2.82,.31-5.69,.53-8.54Z"/>
  <path class="cls-1" d="M53.41,48.2c.32,.22,.83,.21,.85,.76-.14,1.17,.75,1.96,1.11,2.96,.17,.48,.5,.89,.5,1.43-1.09-1.59-1.89-3.31-2.46-5.14Z"/>
  <path class="cls-2" d="M80.61,90.08c.32-.54,.85-.23,1.28-.29,.88-.11,1.81,.18,2.65-.32,.2,.51-.16,.67-.52,.67-1.13,0-2.28,.24-3.41-.07Z"/>
  <path class="cls-2" d="M70.34,90.24c1.18-.32,2.36-.35,3.54-.03-1.18,.19-2.36,.18-3.54,.03Z"/>
  <path class="cls-1" d="M70.31,68.71c-.26,.71-.65,.05-.97,.1-.64-.47-1.47-.61-2.01-1.24,1.13,.02,1.86,1.12,2.99,1.15Z"/>
  <path class="cls-1" d="M65.06,65.95c-.49-.12-.81-.44-1.02-.89,.55,.05,.86,.38,1.02,.89Z"/>
  <path class="cls-1" d="M62.61,63.63c-.46-.19-.76-.53-.89-1.01,.51,.15,.84,.46,.89,1.01Z"/>
  <path class="cls-1" d="M57.52,56.48c-.36-.26-.58-.61-.61-1.06,.51,.17,.62,.58,.61,1.06Z"/>
  <path class="cls-1" d="M58.48,58.16c-.39-.25-.5-.65-.59-1.07,.52,.17,.58,.61,.59,1.07Z"/>
  <path class="cls-1" d="M56.57,54.8c-.32-.29-.52-.64-.55-1.08,.48,.21,.61,.6,.55,1.08Z"/>
  <path class="cls-1" d="M60.64,61.28c-.32-.19-.59-.41-.58-.83,.38,.15,.67,.36,.58,.83Z"/>
  <path class="cls-2" d="M84.66,62.63c.1,.02,.21,.04,.31,.07-.1,.14-.2,.28-.3,.42-.25-.16-.17-.32-.01-.48Z"/>
  <path class="cls-1" d="M63.07,64.12c-.27-.06-.45-.2-.46-.49,.34,0,.5,.15,.46,.49Z"/>
  <path class="cls-1" d="M64.05,65.07c-.28-.03-.46-.17-.49-.46,.33-.02,.51,.11,.49,.46Z"/>
  <path class="cls-1" d="M63.55,64.6c-.28-.04-.45-.18-.48-.48,.33-.02,.5,.13,.48,.48Z"/>
  <path class="cls-2" d="M84.37,47.01c.09,.08,.25,.16,.25,.24,.05,2.25,.27,4.49-.08,6.73-.38-.24-.27-.63-.26-.97,.05-2-.2-4.01,.09-6Z"/>
  <path class="cls-2" d="M84.69,39.84c-.15,0-.3,0-.44,0-.04-.43-.09-.86,.2-1.35,.37,.45,.25,.91,.24,1.35Z"/>
  <path class="cls-2" d="M85.93,45.6c-.42-.35-.57-.76-.32-1.28,.26,.39,.59,.76,.32,1.28Z"/>
  <path class="cls-2" d="M86.48,47.8c-.31-.26-.67-.5-.35-.99,.31,.26,.5,.57,.35,.99Z"/>
  <path class="cls-2" d="M85.04,41.33c-.26-.13-.36-.31-.22-.59,.26,.13,.39,.3,.22,.59Z"/>
  <path class="cls-2" d="M85.47,43.44c-.25-.12-.28-.31-.18-.54,.23,.12,.44,.25,.18,.54Z"/>
</svg>